<svg xmlns="http://www.w3.org/2000/svg" viewBox="0 0 25 14" width="25" height="14">
	<defs>
		<clipPath clipPathUnits="userSpaceOnUse" id="cp1">
			<path d="M-843 -517L757 -517L757 283L-843 283Z" />
		</clipPath>
	</defs>
	<style>
		tspan { white-space:pre }
		.shp0 { fill: #4c18aa } 
	</style>
	<g id="Бургер-меню" clip-path="url(#cp1)">
		<g id="Сгруппировать 244">
			<g id="Сгруппировать 185">
				<path id="Icon awesome-vk" class="shp0" d="M23.7 1.17C23.87 0.64 23.7 0.25 22.91 0.25L20.29 0.25C19.62 0.25 19.31 0.58 19.15 0.95C19.15 0.95 17.81 4.04 15.92 6.04C15.31 6.62 15.03 6.8 14.69 6.8C14.53 6.8 14.28 6.62 14.28 6.09L14.28 1.17C14.28 0.53 14.09 0.25 13.54 0.25L9.41 0.25C8.99 0.25 8.74 0.55 8.74 0.82C8.74 1.42 9.69 1.56 9.78 3.25L9.78 6.91C9.78 7.71 9.63 7.86 9.3 7.86C8.41 7.86 6.24 4.76 4.96 1.22C4.7 0.53 4.45 0.25 3.77 0.25L1.15 0.25C0.4 0.25 0.25 0.58 0.25 0.95C0.25 1.61 1.14 4.88 4.4 9.2C6.57 12.15 9.62 13.75 12.4 13.75C14.08 13.75 14.28 13.4 14.28 12.78C14.28 9.97 14.13 9.7 14.97 9.7C15.35 9.7 16.02 9.89 17.58 11.31C19.36 12.99 19.66 13.75 20.66 13.75L23.28 13.75C24.03 13.75 24.41 13.4 24.19 12.7C23.69 11.22 20.32 8.19 20.17 7.99C19.78 7.52 19.89 7.31 20.17 6.89C20.17 6.88 23.37 2.61 23.7 1.17L23.7 1.17Z" />
			</g>
		</g>
	</g>
</svg>