<svg xmlns="http://www.w3.org/2000/svg" viewBox="0 0 13 13" width="13" height="13">
	<defs>
		<clipPath clipPathUnits="userSpaceOnUse" id="cp1">
			<path d="M-152 -25L208 -25L208 6711L-152 6711Z" />
		</clipPath>
	</defs>
	<style>
		tspan { white-space:pre }
		.shp0 { fill: #a6abbd } 
	</style>
	<g id="Мобилка-Главная страница" clip-path="url(#cp1)">
		<g id="Сгруппировать 192">
			<path id="Icon awesome-phone-alt" class="shp0" d="M12.66 8.48L10.03 7.36C9.8 7.26 9.53 7.32 9.38 7.52L8.21 8.94C6.39 8.08 4.92 6.61 4.06 4.78L5.48 3.62C5.68 3.46 5.74 3.2 5.64 2.97L4.52 0.34C4.41 0.09 4.14 -0.05 3.87 0.01L1.44 0.58C1.18 0.64 1 0.86 1 1.13C1 7.14 5.87 12 11.87 12C12.14 12 12.36 11.82 12.42 11.56L12.99 9.13C13.05 8.86 12.91 8.59 12.66 8.48Z" />
		</g>
	</g>
</svg>