<svg xmlns="http://www.w3.org/2000/svg" viewBox="0 0 18 18" width="18" height="18">
	<defs>
		<clipPath clipPathUnits="userSpaceOnUse" id="cp1">
			<path d="M-966 -40L634 -40L634 760L-966 760Z" />
		</clipPath>
	</defs>
	<style>
		tspan { white-space:pre }
		.shp0 { fill: #4c18aa } 
	</style>
	<g id="Бургер-меню" clip-path="url(#cp1)">
		<g id="Сгруппировать 197">
			<path id="Icon awesome-user-circle" fill-rule="evenodd" class="shp0" d="M18 9C18 13.97 13.97 18 9 18C4.03 18 0 13.97 0 9C0 4.03 4.03 0 9 0C13.97 0 18 4.03 18 9ZM5.81 6.68C5.81 8.44 7.24 9.87 9 9.87C10.76 9.87 12.19 8.44 12.19 6.68C12.19 4.91 10.76 3.48 9 3.48C7.24 3.48 5.81 4.91 5.81 6.68ZM14.32 13.49C13.63 12.21 12.3 11.32 10.74 11.32C10.65 11.32 10.57 11.34 10.48 11.36C10.02 11.51 9.52 11.61 9 11.61C8.48 11.61 7.99 11.51 7.52 11.36C7.43 11.34 7.34 11.32 7.26 11.32C5.7 11.32 4.37 12.21 3.68 13.49C4.96 15 6.87 15.97 9 15.97C11.13 15.97 13.04 15 14.32 13.49Z" />
		</g>
	</g>
</svg>