<svg xmlns="http://www.w3.org/2000/svg" viewBox="0 0 24 16" width="24" height="16">
	<defs>
		<clipPath clipPathUnits="userSpaceOnUse" id="cp1">
			<path d="M-1004 -516L596 -516L596 284L-1004 284Z" />
		</clipPath>
	</defs>
	<style>
		tspan { white-space:pre }
		.shp0 { fill: #4c18aa } 
	</style>
	<g id="Бургер-меню" clip-path="url(#cp1)">
		<g id="Сгруппировать 244">
			<g id="Сгруппировать 187">
				<path id="Icon awesome-youtube" fill-rule="evenodd" class="shp0" d="M23.25 8.01C23.25 8.01 23.25 11.51 22.78 13.18C22.52 14.11 21.76 14.8 20.79 15.05C19.04 15.5 12 15.5 12 15.5C12 15.5 4.96 15.5 3.21 15.05C2.24 14.8 1.48 14.11 1.22 13.18C0.75 11.51 0.75 8.01 0.75 8.01C0.75 8.01 0.75 4.52 1.22 2.85C1.48 1.92 2.24 1.2 3.21 0.95C4.96 0.5 12 0.5 12 0.5C12 0.5 19.04 0.5 20.79 0.95C21.76 1.2 22.52 1.92 22.78 2.85C23.25 4.52 23.25 8.01 23.25 8.01ZM9.7 11.19L15.58 8.01L9.7 4.84L9.7 11.19Z" />
			</g>
		</g>
	</g>
</svg>