<svg xmlns="http://www.w3.org/2000/svg" viewBox="0 0 12 16" width="12" height="16">
	<defs>
		<clipPath clipPathUnits="userSpaceOnUse" id="cp1">
			<path d="M-16 -69L344 -69L344 571L-16 571Z" />
		</clipPath>
	</defs>
	<style>
		tspan { white-space:pre }
		.shp0 { fill: #a6abbd } 
	</style>
	<g id="Бургер-меню" clip-path="url(#cp1)">
		<g id="Сгруппировать 191">
			<path id="Icon awesome-map-marker-alt" fill-rule="evenodd" class="shp0" d="M5.38 15.68C0.84 9.09 0 8.42 0 6C0 2.69 2.69 0 6 0C9.31 0 12 2.69 12 6C12 8.42 11.16 9.09 6.62 15.68C6.32 16.11 5.68 16.11 5.38 15.68ZM6 8.5C7.38 8.5 8.5 7.38 8.5 6C8.5 4.62 7.38 3.5 6 3.5C4.62 3.5 3.5 4.62 3.5 6C3.5 7.38 4.62 8.5 6 8.5Z" />
		</g>
	</g>
</svg>