<svg xmlns="http://www.w3.org/2000/svg" viewBox="0 0 51 55" width="51" height="55">
	<defs>
		<clipPath clipPathUnits="userSpaceOnUse" id="cp1">
			<path d="M-235 -1256L1365 -1256L1365 5016L-235 5016Z" />
		</clipPath>
	</defs>
	<style>
		tspan { white-space:pre }
		.shp0 { fill: #4c18aa } 
		.shp1 { fill: #f6f3ff } 
		.shp2 { fill: #923bfe } 
	</style>
	<g id="Главная страница" clip-path="url(#cp1)">
		<g id="Brain">
			<path id="Контур 152" class="shp0" d="M50 36C50 16.11 40.84 0 29.55 0C27.79 0 26.21 0.67 25 1.75C23.79 0.67 22.21 0 20.45 0C9.16 0 0 16.11 0 36C0 45.94 8.14 54 18.18 54L20.45 54C22.21 54 23.79 53.32 25 52.25C26.21 53.32 27.79 54 29.55 54L31.82 54C41.86 54 50 45.94 50 36Z" />
			<path id="Контур 153" class="shp1" d="M22.73 47.25L22.73 9L22.73 6.75C22.73 5.51 21.71 4.5 20.45 4.5C16.76 4.5 12.93 7.51 9.96 12.75C8.51 15.29 7.35 18.21 6.47 21.38L5.66 24.75C4.94 28.3 4.55 32.09 4.55 36C4.55 43.44 10.66 49.5 18.18 49.5L20.45 49.5C21.71 49.5 22.73 48.49 22.73 47.25Z" />
			<path id="Контур 154" class="shp1" d="M45.45 36C45.45 32.09 45.06 28.3 44.34 24.75L43.53 21.38C42.65 18.21 41.49 15.29 40.05 12.75C37.07 7.51 33.24 4.5 29.55 4.5C28.29 4.5 27.27 5.51 27.27 6.75L27.27 47.25C27.27 48.49 28.29 49.5 29.55 49.5L31.82 49.5C39.34 49.5 45.45 43.44 45.45 36Z" />
			<path id="Контур 155" class="shp2" d="M27.27 9C27.27 12.11 29.82 14.63 32.95 14.63L37.5 14.63L37.5 18L32.95 18C30.79 18 28.83 17.22 27.27 15.98L27.27 9Z" />
			<path id="Контур 156" class="shp2" d="M44.34 24.75L37.5 24.75L37.5 24.75L37.5 24.75C35.62 24.75 34.09 26.26 34.09 28.13L34.09 32.63L30.68 32.63L30.68 28.13C30.68 24.39 33.74 21.38 37.5 21.38L37.5 21.38L37.5 21.38L43.53 21.38L44.34 24.75Z" />
			<path id="Контур 157" class="shp2" d="M27.27 38.25L31.82 38.25C34.95 38.25 37.5 35.73 37.5 32.63L37.5 29.25L40.91 29.25L40.91 32.63C40.91 36.82 38 40.3 34.09 41.31L34.09 46.13L30.68 46.13L30.68 41.63L27.27 41.63L27.27 38.25Z" />
			<path id="Контур 158" class="shp2" d="M22.73 15.98C21.17 17.22 19.21 18 17.05 18L12.5 18L12.5 14.63L17.05 14.63C20.18 14.63 22.73 12.11 22.73 9L22.73 15.98Z" />
			<path id="Контур 159" class="shp2" d="M22.73 41.63L19.32 41.63L19.32 46.13L15.91 46.13L15.91 41.31C12 40.3 9.09 36.82 9.09 32.63L9.09 29.25L12.5 29.25L12.5 32.63C12.5 35.73 15.05 38.25 18.18 38.25L22.73 38.25L22.73 41.63Z" />
			<path id="Контур 160" class="shp2" d="M6.47 21.38L12.5 21.38L12.5 21.38L12.5 21.38C16.26 21.38 19.32 24.39 19.32 28.13L19.32 32.63L15.91 32.63L15.91 28.13C15.91 26.26 14.38 24.75 12.5 24.75L12.5 24.75L12.5 24.75L5.66 24.75L6.47 21.38Z" />
		</g>
	</g>
</svg>