<svg xmlns="http://www.w3.org/2000/svg" viewBox="0 0 48 48" width="48" height="48">
	<defs>
		<clipPath clipPathUnits="userSpaceOnUse" id="cp1">
			<path d="M-200 -25L1400 -25L1400 775L-200 775Z" />
		</clipPath>
		<linearGradient id="grd1" gradientUnits="userSpaceOnUse"  x1="0.001" y1="24" x2="57.256" y2="24">
			<stop offset="0" stop-color="#4b18a9"  />
			<stop offset="1" stop-color="#923bfe"  />
		</linearGradient>
	</defs>
	<style>
		tspan { white-space:pre }
		.shp0 { fill: url(#grd1) } 
	</style>
	<g id="Бургер-меню" clip-path="url(#cp1)">
		<g id="Сгруппировать 195">
			<path id="Вычитание 2" fill-rule="evenodd" class="shp0" d="M24 48C20.75 48 17.61 47.36 14.66 46.11C11.8 44.91 9.23 43.17 7.03 40.97C4.82 38.76 3.09 36.19 1.89 33.34C0.64 30.38 0 27.24 0 24C0 20.76 0.64 17.61 1.89 14.66C3.09 11.8 4.82 9.23 7.03 7.03C9.23 4.82 11.8 3.09 14.66 1.89C17.61 0.63 20.75 0 24 0C27.24 0 30.38 0.63 33.34 1.89C36.2 3.1 38.77 4.82 40.97 7.03C43.18 9.23 44.91 11.8 46.11 14.66C47.37 17.61 48 20.76 48 24C48 27.24 47.37 30.38 46.11 33.34C44.91 36.2 43.18 38.76 40.97 40.97C38.77 43.17 36.2 44.91 33.34 46.11C30.38 47.36 27.24 48 24 48ZM14 36L24.84 36C27.42 36 29.73 35.5 31.71 34.51C33.7 33.52 35.26 32.1 36.35 30.31C37.44 28.51 38 26.38 38 24C38 21.61 37.44 19.49 36.35 17.69C35.25 15.89 33.69 14.48 31.71 13.49C29.73 12.5 27.42 12 24.84 12L14 12L14 36ZM24.57 31.44L19.52 31.44L19.52 16.56L24.57 16.56C26.95 16.56 28.87 17.24 30.28 18.57C31.69 19.9 32.41 21.72 32.41 24C32.41 26.28 31.69 28.1 30.28 29.43C28.86 30.77 26.94 31.44 24.57 31.44Z" />
		</g>
	</g>
</svg>