<svg xmlns="http://www.w3.org/2000/svg" viewBox="0 0 17 16" width="17" height="16">
	<defs>
		<clipPath clipPathUnits="userSpaceOnUse" id="cp1">
			<path d="M-91 -6548L269 -6548L269 188L-91 188Z" />
		</clipPath>
	</defs>
	<style>
		tspan { white-space:pre }
		.shp0 { fill: #ffffff } 
	</style>
	<g id="Мобилка-Главная страница" clip-path="url(#cp1)">
		<g id="Сгруппировать 201">
			<g id="Сгруппировать 199">
				<g id="Сгруппировать 186">
					<path id="Icon awesome-instagram" fill-rule="evenodd" class="shp0" d="M16.94 4.7C17.02 6.02 17.02 9.98 16.94 11.3C16.88 12.58 16.59 13.71 15.65 14.65C14.72 15.59 13.58 15.88 12.3 15.94C10.98 16.02 7.02 16.02 5.7 15.94C4.42 15.88 3.29 15.58 2.35 14.65C1.41 13.71 1.12 12.58 1.06 11.3C0.98 9.98 0.98 6.02 1.06 4.7C1.12 3.42 1.41 2.28 2.35 1.34C3.29 0.41 4.42 0.12 5.7 0.06C7.02 -0.02 10.98 -0.02 12.3 0.06C13.58 0.12 14.72 0.41 15.65 1.35C16.59 2.28 16.88 3.42 16.94 4.7ZM15.56 8C15.56 6.83 15.65 4.34 15.24 3.28C14.95 2.58 14.42 2.04 13.72 1.76C12.67 1.35 10.16 1.44 9 1.44C7.84 1.44 5.34 1.34 4.29 1.76C3.58 2.04 3.04 2.58 2.77 3.28C2.35 4.33 2.44 6.83 2.44 8C2.44 9.16 2.35 11.66 2.77 12.71C3.05 13.42 3.59 13.96 4.29 14.23C5.34 14.65 7.84 14.56 9 14.56C10.16 14.56 12.66 14.65 13.72 14.23C14.42 13.95 14.96 13.41 15.24 12.71C15.65 11.66 15.56 9.16 15.56 8ZM14.23 3.73C14.23 4.26 13.8 4.69 13.27 4.69C12.74 4.69 12.31 4.26 12.31 3.73C12.31 3.2 12.74 2.77 13.27 2.77C13.8 2.77 14.23 3.2 14.23 3.73ZM13.1 8C13.1 10.27 11.27 12.1 9 12.1C6.73 12.1 4.9 10.27 4.9 8C4.9 5.73 6.73 3.9 9 3.9C11.27 3.9 13.1 5.73 13.1 8ZM9 10.66C10.47 10.66 11.67 9.47 11.67 8C11.67 6.53 10.47 5.33 9 5.33C7.53 5.33 6.33 6.53 6.33 8C6.33 9.47 7.53 10.66 9 10.66Z" />
				</g>
			</g>
		</g>
	</g>
</svg>