<svg xmlns="http://www.w3.org/2000/svg" viewBox="0 0 17 17" width="17" height="17">
	<defs>
		<clipPath clipPathUnits="userSpaceOnUse" id="cp1">
			<path d="M-199 -2823L1401 -2823L1401 3449L-199 3449Z" />
		</clipPath>
	</defs>
	<style>
		tspan { white-space:pre }
		.shp0 { fill: #4c18aa } 
	</style>
	<g id="Главная страница" clip-path="url(#cp1)">
		<g id="Сгруппировать 235">
			<path id="Icon awesome-instagram" fill-rule="evenodd" class="shp0" d="M16.94 4.9C17.02 6.22 17.02 10.18 16.94 11.5C16.88 12.78 16.59 13.91 15.65 14.85C14.72 15.79 13.58 16.08 12.3 16.14C10.98 16.22 7.02 16.22 5.7 16.14C4.42 16.08 3.29 15.78 2.35 14.85C1.41 13.91 1.12 12.78 1.06 11.5C0.98 10.18 0.98 6.22 1.06 4.9C1.12 3.62 1.41 2.48 2.35 1.55C3.29 0.61 4.42 0.32 5.7 0.26C7.02 0.18 10.98 0.18 12.3 0.26C13.58 0.32 14.72 0.61 15.65 1.55C16.59 2.48 16.88 3.62 16.94 4.9ZM15.56 8.2C15.56 7.04 15.65 4.54 15.24 3.48C14.96 2.78 14.42 2.24 13.72 1.96C12.67 1.55 10.17 1.64 9 1.64C7.84 1.64 5.34 1.55 4.29 1.96C3.58 2.24 3.04 2.78 2.77 3.48C2.35 4.53 2.44 7.04 2.44 8.2C2.44 9.36 2.35 11.86 2.77 12.91C3.05 13.62 3.59 14.16 4.29 14.43C5.34 14.85 7.84 14.76 9 14.76C10.17 14.76 12.66 14.85 13.72 14.43C14.42 14.15 14.96 13.61 15.24 12.91C15.65 11.86 15.56 9.36 15.56 8.2ZM14.23 3.93C14.23 4.46 13.8 4.89 13.27 4.89C12.74 4.89 12.31 4.46 12.31 3.93C12.31 3.4 12.74 2.97 13.27 2.97C13.8 2.97 14.23 3.4 14.23 3.93ZM13.1 8.2C13.1 10.47 11.27 12.3 9 12.3C6.73 12.3 4.9 10.47 4.9 8.2C4.9 5.93 6.73 4.1 9 4.1C11.27 4.1 13.1 5.93 13.1 8.2ZM9 10.87C10.47 10.87 11.67 9.67 11.67 8.2C11.67 6.73 10.47 5.53 9 5.53C7.53 5.53 6.33 6.73 6.33 8.2C6.33 9.67 7.53 10.87 9 10.87Z" />
		</g>
	</g>
</svg>