<svg xmlns="http://www.w3.org/2000/svg" viewBox="0 0 228 48" width="228" height="48">
	<defs>
		<clipPath clipPathUnits="userSpaceOnUse" id="cp1">
			<path d="M-200 -25L1400 -25L1400 775L-200 775Z" />
		</clipPath>
		<linearGradient id="grd1" gradientUnits="userSpaceOnUse"  x1="0.001" y1="24" x2="57.256" y2="24">
			<stop offset="0" stop-color="#4b18a9"  />
			<stop offset="1" stop-color="#923bfe"  />
		</linearGradient>
	</defs>
	<style>
		tspan { white-space:pre }
		.shp0 { fill: url(#grd1) } 
		.shp1 { fill: #100246 } 
	</style>
	<g id="Бургер-меню" clip-path="url(#cp1)">
		<g id="Сгруппировать 195">
			<path id="Вычитание 2" fill-rule="evenodd" class="shp0" d="M24 48C20.75 48 17.61 47.36 14.66 46.11C11.8 44.91 9.23 43.17 7.03 40.97C4.82 38.76 3.09 36.19 1.89 33.34C0.64 30.38 0 27.24 0 24C0 20.76 0.64 17.61 1.89 14.66C3.09 11.8 4.82 9.23 7.03 7.03C9.23 4.82 11.8 3.09 14.66 1.89C17.61 0.63 20.75 0 24 0C27.24 0 30.38 0.63 33.34 1.89C36.2 3.1 38.77 4.82 40.97 7.03C43.18 9.23 44.91 11.8 46.11 14.66C47.37 17.61 48 20.76 48 24C48 27.24 47.37 30.38 46.11 33.34C44.91 36.2 43.18 38.76 40.97 40.97C38.77 43.17 36.2 44.91 33.34 46.11C30.38 47.36 27.24 48 24 48ZM14 36L24.84 36C27.42 36 29.73 35.5 31.71 34.51C33.7 33.52 35.26 32.1 36.35 30.31C37.44 28.51 38 26.38 38 24C38 21.61 37.44 19.49 36.35 17.69C35.25 15.89 33.69 14.48 31.71 13.49C29.73 12.5 27.42 12 24.84 12L14 12L14 36ZM24.57 31.44L19.52 31.44L19.52 16.56L24.57 16.56C26.95 16.56 28.87 17.24 30.28 18.57C31.69 19.9 32.41 21.72 32.41 24C32.41 26.28 31.69 28.1 30.28 29.43C28.86 30.77 26.94 31.44 24.57 31.44Z" />
			<path id="Контур 1" fill-rule="evenodd" class="shp1" d="M64 12.4L74.13 12.4C76.55 12.4 78.69 12.88 80.55 13.84C82.4 14.8 83.85 16.15 84.88 17.9C85.91 19.65 86.42 21.68 86.42 24C86.42 26.32 85.91 28.35 84.88 30.1C83.85 31.84 82.4 33.2 80.55 34.16C78.69 35.12 76.55 35.6 74.13 35.6L64 35.6L64 12.4ZM73.87 31.19C76.1 31.19 77.88 30.55 79.21 29.25C80.53 27.96 81.2 26.21 81.2 24C81.2 21.79 80.53 20.04 79.21 18.74C77.88 17.45 76.1 16.81 73.87 16.81L69.16 16.81L69.16 31.19L73.87 31.19ZM113.94 31.29L113.94 35.6L96.68 35.6L96.68 12.4L113.53 12.4L113.53 16.71L101.81 16.71L101.81 21.74L112.16 21.74L112.16 25.92L101.81 25.92L101.81 31.29L113.94 31.29ZM144.87 12.4L144.87 35.6L140.63 35.6L129.52 21.51L129.52 35.6L124.42 35.6L124.42 12.4L128.69 12.4L139.77 26.49L139.77 12.4L144.87 12.4ZM161.14 16.77L154.01 16.77L154.01 12.4L173.44 12.4L173.44 16.77L166.3 16.77L166.3 35.6L161.14 35.6L161.14 16.77ZM189.75 36C187.98 36 186.28 35.75 184.63 35.25C182.99 34.76 181.67 34.11 180.67 33.31L182.42 29.27C183.38 30 184.51 30.58 185.83 31.03C187.14 31.47 188.46 31.69 189.78 31.69C191.24 31.69 192.33 31.46 193.03 31.01C193.73 30.56 194.08 29.95 194.08 29.2C194.08 28.65 193.87 28.19 193.46 27.83C193.04 27.46 192.51 27.17 191.86 26.95C191.22 26.73 190.34 26.49 189.24 26.22C187.54 25.8 186.15 25.38 185.06 24.96C183.98 24.54 183.05 23.87 182.28 22.94C181.5 22.01 181.11 20.77 181.11 19.23C181.11 17.88 181.46 16.66 182.17 15.56C182.87 14.47 183.92 13.6 185.33 12.96C186.75 12.32 188.47 12 190.51 12C191.93 12 193.32 12.18 194.68 12.53C196.04 12.88 197.23 13.39 198.25 14.05L196.66 18.13C194.6 16.92 192.54 16.31 190.48 16.31C189.03 16.31 187.97 16.55 187.28 17.04C186.59 17.52 186.24 18.16 186.24 18.96C186.24 19.76 186.64 20.35 187.44 20.73C188.23 21.12 189.45 21.5 191.08 21.88C192.78 22.3 194.17 22.72 195.26 23.14C196.34 23.56 197.27 24.22 198.04 25.13C198.82 26.03 199.21 27.26 199.21 28.81C199.21 30.13 198.85 31.34 198.14 32.44C197.43 33.53 196.36 34.4 194.94 35.04C193.51 35.68 191.78 36 189.75 36ZM219.34 27.38L219.34 35.6L214.18 35.6L214.18 27.31L205.54 12.4L211.02 12.4L216.98 22.71L222.93 12.4L228 12.4L219.34 27.38Z" />
		</g>
	</g>
</svg>