<svg xmlns="http://www.w3.org/2000/svg" viewBox="0 0 182 31" width="182" height="31">
	<defs>
		<clipPath clipPathUnits="userSpaceOnUse" id="cp1">
			<path d="M-16 -6022L344 -6022L344 714L-16 714Z" />
		</clipPath>
	</defs>
	<style>
		tspan { white-space:pre }
		.shp0 { fill: #a6abbd } 
	</style>
	<g id="Мобилка-Главная страница" clip-path="url(#cp1)">
		<g id="Сгруппировать 181">
			<path id="Контур 179" fill-rule="evenodd" class="shp0" d="M0 3.42L1.13 3.42L1.13 7.94L4.94 3.42L5.95 3.42L5.95 9.63L4.83 9.63L4.83 5.1L1.03 9.63L0 9.63L0 3.42ZM11.78 9.7C11.15 9.7 10.58 9.56 10.09 9.29C9.59 9.01 9.2 8.64 8.92 8.16C8.64 7.68 8.5 7.13 8.5 6.52C8.5 5.91 8.64 5.37 8.92 4.89C9.2 4.41 9.59 4.03 10.09 3.76C10.58 3.49 11.15 3.36 11.78 3.36C12.34 3.36 12.84 3.47 13.28 3.7C13.73 3.92 14.07 4.25 14.31 4.68L13.45 5.23C13.26 4.94 13.02 4.71 12.73 4.56C12.44 4.42 12.12 4.34 11.77 4.34C11.36 4.34 11 4.43 10.67 4.61C10.35 4.79 10.09 5.05 9.91 5.38C9.73 5.71 9.63 6.09 9.63 6.52C9.63 6.96 9.73 7.34 9.91 7.68C10.09 8.01 10.35 8.26 10.67 8.44C11 8.62 11.36 8.71 11.77 8.71C12.12 8.71 12.44 8.64 12.73 8.49C13.02 8.34 13.26 8.12 13.45 7.82L14.31 8.36C14.07 8.79 13.73 9.12 13.28 9.35C12.84 9.58 12.34 9.7 11.78 9.7ZM19.11 7L17.83 7L17.83 9.63L16.7 9.63L16.7 3.42L17.83 3.42L17.83 6.04L19.14 6.04L21.15 3.42L22.36 3.42L20.01 6.4L22.53 9.63L21.2 9.63L19.11 7ZM29.84 3.42L26.83 10.25C26.56 10.88 26.25 11.33 25.89 11.58C25.54 11.84 25.11 11.97 24.61 11.97C24.31 11.97 24.01 11.92 23.73 11.82C23.44 11.73 23.2 11.58 23.02 11.4L23.5 10.55C23.82 10.86 24.19 11.01 24.61 11.01C24.88 11.01 25.11 10.94 25.3 10.79C25.48 10.65 25.65 10.4 25.79 10.05L25.99 9.62L23.25 3.42L24.42 3.42L26.59 8.38L28.74 3.42L29.84 3.42ZM34.45 9.7C33.82 9.7 33.26 9.56 32.76 9.29C32.27 9.01 31.88 8.64 31.6 8.16C31.31 7.68 31.17 7.13 31.17 6.52C31.17 5.91 31.31 5.37 31.6 4.89C31.88 4.41 32.27 4.03 32.76 3.76C33.26 3.49 33.82 3.36 34.45 3.36C35.02 3.36 35.52 3.47 35.96 3.7C36.4 3.92 36.74 4.25 36.99 4.68L36.13 5.23C35.94 4.94 35.69 4.71 35.4 4.56C35.11 4.42 34.79 4.34 34.44 4.34C34.04 4.34 33.67 4.43 33.35 4.61C33.02 4.79 32.77 5.05 32.59 5.38C32.4 5.71 32.31 6.09 32.31 6.52C32.31 6.96 32.4 7.34 32.59 7.68C32.77 8.01 33.02 8.26 33.35 8.44C33.67 8.62 34.04 8.71 34.44 8.71C34.79 8.71 35.11 8.64 35.4 8.49C35.69 8.34 35.94 8.12 36.13 7.82L36.99 8.36C36.74 8.79 36.4 9.12 35.96 9.35C35.52 9.58 35.02 9.7 34.45 9.7ZM41.99 9.7C41.36 9.7 40.79 9.56 40.3 9.29C39.8 9.01 39.41 8.64 39.13 8.16C38.85 7.68 38.71 7.13 38.71 6.52C38.71 5.91 38.85 5.37 39.13 4.89C39.41 4.41 39.8 4.03 40.3 3.76C40.79 3.49 41.36 3.36 41.99 3.36C42.55 3.36 43.05 3.47 43.5 3.7C43.94 3.92 44.28 4.25 44.52 4.68L43.67 5.23C43.47 4.94 43.23 4.71 42.94 4.56C42.65 4.42 42.33 4.34 41.98 4.34C41.57 4.34 41.21 4.43 40.88 4.61C40.56 4.79 40.3 5.05 40.12 5.38C39.94 5.71 39.85 6.09 39.85 6.52C39.85 6.96 39.94 7.34 40.12 7.68C40.3 8.01 40.56 8.26 40.88 8.44C41.21 8.62 41.57 8.71 41.98 8.71C42.33 8.71 42.65 8.64 42.94 8.49C43.23 8.34 43.47 8.12 43.67 7.82L44.52 8.36C44.28 8.79 43.94 9.12 43.5 9.35C43.05 9.58 42.55 9.7 41.99 9.7ZM51.46 4.4L49.19 4.4L49.19 9.63L48.06 9.63L48.06 4.4L45.79 4.4L45.79 3.42L51.46 3.42L51.46 4.4ZM57.78 6.4C58.58 6.61 58.98 7.11 58.98 7.92C58.98 8.46 58.78 8.89 58.37 9.18C57.96 9.48 57.35 9.63 56.53 9.63L53.54 9.63L53.54 3.42L56.43 3.42C57.16 3.42 57.74 3.55 58.15 3.83C58.56 4.11 58.77 4.5 58.77 5.01C58.77 5.34 58.68 5.62 58.51 5.86C58.33 6.1 58.09 6.28 57.78 6.4ZM54.65 6.09L56.33 6.09C56.76 6.09 57.09 6.01 57.31 5.85C57.53 5.7 57.65 5.47 57.65 5.17C57.65 4.58 57.21 4.28 56.33 4.28L54.65 4.28L54.65 6.09ZM56.45 8.76C56.92 8.76 57.27 8.69 57.51 8.54C57.74 8.39 57.86 8.16 57.86 7.85C57.86 7.53 57.75 7.29 57.53 7.13C57.32 6.97 56.98 6.9 56.52 6.9L54.65 6.9L54.65 8.76L56.45 8.76ZM67.29 6.56C67.29 6.64 67.28 6.76 67.27 6.9L62.23 6.9C62.3 7.44 62.54 7.88 62.95 8.22C63.36 8.55 63.87 8.71 64.48 8.71C65.22 8.71 65.82 8.46 66.27 7.96L66.89 8.69C66.61 9.02 66.26 9.27 65.84 9.44C65.43 9.61 64.96 9.7 64.44 9.7C63.79 9.7 63.2 9.56 62.7 9.29C62.19 9.02 61.8 8.65 61.52 8.16C61.24 7.68 61.1 7.13 61.1 6.52C61.1 5.92 61.24 5.38 61.51 4.89C61.78 4.41 62.15 4.03 62.62 3.76C63.09 3.49 63.63 3.36 64.22 3.36C64.81 3.36 65.34 3.49 65.81 3.76C66.27 4.03 66.64 4.41 66.9 4.89C67.16 5.38 67.29 5.93 67.29 6.56ZM64.22 4.31C63.68 4.31 63.23 4.47 62.87 4.8C62.5 5.13 62.29 5.56 62.23 6.09L66.21 6.09C66.15 5.56 65.94 5.14 65.57 4.8C65.21 4.47 64.76 4.31 64.22 4.31ZM69.97 3.42L71.1 3.42L71.1 6.05L74.64 6.05L74.64 3.42L75.76 3.42L75.76 9.63L74.64 9.63L74.64 7.03L71.1 7.03L71.1 9.63L69.97 9.63L69.97 3.42ZM78.89 3.42L80.02 3.42L80.02 6.05L83.56 6.05L83.56 3.42L84.68 3.42L84.68 9.63L83.56 9.63L83.56 7.03L80.02 7.03L80.02 9.63L78.89 9.63L78.89 3.42ZM90.61 5.53C91.39 5.53 91.99 5.71 92.4 6.06C92.82 6.42 93.03 6.91 93.03 7.55C93.03 8.22 92.8 8.74 92.35 9.11C91.9 9.47 91.26 9.65 90.42 9.64L87.81 9.63L87.81 3.42L88.94 3.42L88.94 5.51L90.61 5.53ZM93.95 3.42L95.08 3.42L95.08 9.63L93.95 9.63L93.95 3.42ZM90.34 8.78C90.85 8.79 91.23 8.69 91.5 8.48C91.76 8.27 91.89 7.96 91.89 7.54C91.89 7.14 91.76 6.84 91.5 6.65C91.24 6.46 90.86 6.37 90.34 6.36L88.94 6.33L88.94 8.77L90.34 8.78ZM98.2 3.42L99.33 3.42L99.33 7.94L103.14 3.42L104.16 3.42L104.16 9.63L103.03 9.63L103.03 5.1L99.24 9.63L98.2 9.63L98.2 3.42ZM101.11 2.61C100.53 2.61 100.08 2.47 99.76 2.19C99.44 1.91 99.28 1.51 99.27 0.99L100.03 0.99C100.04 1.28 100.14 1.51 100.33 1.69C100.52 1.86 100.78 1.95 101.1 1.95C101.42 1.95 101.68 1.86 101.87 1.69C102.07 1.51 102.17 1.28 102.18 0.99L102.96 0.99C102.95 1.51 102.79 1.91 102.46 2.19C102.13 2.47 101.68 2.61 101.11 2.61ZM111.36 3.42L112.49 3.42L112.49 7.94L116.3 3.42L117.32 3.42L117.32 9.63L116.19 9.63L116.19 5.1L112.4 9.63L111.36 9.63L111.36 3.42ZM120.44 3.42L121.56 3.42L121.56 6.05L125.1 6.05L125.1 3.42L126.22 3.42L126.22 9.63L125.1 9.63L125.1 7.03L121.56 7.03L121.56 9.63L120.44 9.63L120.44 3.42ZM133.98 4.4L131.71 4.4L131.71 9.63L130.58 9.63L130.58 4.4L128.31 4.4L128.31 3.42L133.98 3.42L133.98 4.4ZM141.41 6.56C141.41 6.64 141.4 6.76 141.39 6.9L136.35 6.9C136.42 7.44 136.66 7.88 137.07 8.22C137.48 8.55 137.99 8.71 138.6 8.71C139.34 8.71 139.94 8.46 140.39 7.96L141.01 8.69C140.73 9.02 140.38 9.27 139.96 9.44C139.55 9.61 139.08 9.7 138.56 9.7C137.91 9.7 137.33 9.56 136.82 9.29C136.31 9.02 135.92 8.65 135.64 8.16C135.36 7.68 135.22 7.13 135.22 6.52C135.22 5.92 135.36 5.38 135.63 4.89C135.9 4.41 136.27 4.03 136.74 3.76C137.21 3.49 137.75 3.36 138.34 3.36C138.94 3.36 139.46 3.49 139.93 3.76C140.39 4.03 140.76 4.41 141.02 4.89C141.28 5.38 141.41 5.93 141.41 6.56ZM138.34 4.31C137.8 4.31 137.35 4.47 136.99 4.8C136.62 5.13 136.41 5.56 136.35 6.09L140.33 6.09C140.27 5.56 140.06 5.14 139.7 4.8C139.33 4.47 138.88 4.31 138.34 4.31ZM149.32 3.42L149.32 9.63L148.2 9.63L148.2 4.4L145.53 4.4L145.45 5.78C145.42 6.62 145.34 7.32 145.23 7.88C145.12 8.43 144.94 8.88 144.69 9.22C144.44 9.55 144.1 9.72 143.65 9.72C143.45 9.72 143.22 9.69 142.96 9.62L143.03 8.67C143.13 8.69 143.22 8.7 143.31 8.7C143.62 8.7 143.86 8.56 144.01 8.29C144.17 8.02 144.27 7.69 144.32 7.32C144.37 6.94 144.41 6.41 144.45 5.71L144.55 3.42L149.32 3.42ZM157.77 3.42L157.77 9.63L156.65 9.63L156.65 4.4L153.97 4.4L153.9 5.78C153.86 6.62 153.79 7.32 153.68 7.88C153.57 8.43 153.39 8.88 153.14 9.22C152.89 9.55 152.54 9.72 152.1 9.72C151.9 9.72 151.67 9.69 151.41 9.62L151.48 8.67C151.58 8.69 151.67 8.7 151.76 8.7C152.07 8.7 152.31 8.56 152.46 8.29C152.62 8.02 152.72 7.69 152.77 7.32C152.81 6.94 152.86 6.41 152.9 5.71L153 3.42L157.77 3.42ZM166.5 6.56C166.5 6.64 166.49 6.76 166.48 6.9L161.44 6.9C161.51 7.44 161.75 7.88 162.16 8.22C162.57 8.55 163.08 8.71 163.69 8.71C164.43 8.71 165.03 8.46 165.48 7.96L166.1 8.69C165.82 9.02 165.47 9.27 165.05 9.44C164.64 9.61 164.17 9.7 163.65 9.7C163 9.7 162.42 9.56 161.91 9.29C161.4 9.02 161.01 8.65 160.73 8.16C160.45 7.68 160.31 7.13 160.31 6.52C160.31 5.92 160.45 5.38 160.72 4.89C160.99 4.41 161.36 4.03 161.83 3.76C162.3 3.49 162.84 3.36 163.43 3.36C164.03 3.36 164.55 3.49 165.02 3.76C165.48 4.03 165.85 4.41 166.11 4.89C166.37 5.38 166.5 5.93 166.5 6.56ZM163.43 4.31C162.89 4.31 162.44 4.47 162.08 4.8C161.71 5.13 161.5 5.56 161.44 6.09L165.42 6.09C165.36 5.56 165.15 5.14 164.78 4.8C164.42 4.47 163.97 4.31 163.43 4.31ZM171.6 7L170.31 7L170.31 9.63L169.19 9.63L169.19 3.42L170.31 3.42L170.31 6.04L171.62 6.04L173.64 3.42L174.85 3.42L172.49 6.4L175.01 9.63L173.69 9.63L171.6 7ZM181.65 4.4L179.38 4.4L179.38 9.63L178.26 9.63L178.26 4.4L175.98 4.4L175.98 3.42L181.65 3.42L181.65 4.4ZM4.23 24.43C5.04 24.64 5.44 25.14 5.44 25.95C5.44 26.49 5.23 26.91 4.82 27.21C4.41 27.51 3.8 27.66 2.99 27.66L0 27.66L0 21.45L2.88 21.45C3.62 21.45 4.19 21.58 4.61 21.86C5.02 22.14 5.23 22.53 5.23 23.04C5.23 23.37 5.14 23.65 4.96 23.89C4.79 24.13 4.54 24.31 4.23 24.43ZM1.1 24.12L2.79 24.12C3.22 24.12 3.55 24.04 3.77 23.88C3.99 23.73 4.1 23.5 4.1 23.2C4.1 22.61 3.67 22.31 2.79 22.31L1.1 22.31L1.1 24.12ZM2.91 26.79C3.38 26.79 3.73 26.71 3.96 26.57C4.2 26.42 4.31 26.19 4.31 25.87C4.31 25.55 4.21 25.32 3.99 25.16C3.78 25 3.44 24.93 2.98 24.93L1.1 24.93L1.1 26.79L2.91 26.79ZM14.84 22.9C15.64 22.98 16.26 23.22 16.68 23.64C17.1 24.06 17.31 24.59 17.31 25.24C17.31 25.71 17.19 26.13 16.96 26.51C16.72 26.89 16.37 27.19 15.91 27.42C15.45 27.64 14.88 27.75 14.2 27.75C13.62 27.75 13.06 27.66 12.52 27.49C11.98 27.31 11.54 27.07 11.19 26.75L11.73 25.83C12.01 26.09 12.37 26.31 12.81 26.47C13.25 26.63 13.71 26.71 14.2 26.71C14.81 26.71 15.29 26.58 15.63 26.32C15.97 26.06 16.14 25.71 16.14 25.25C16.14 24.8 15.97 24.45 15.63 24.2C15.3 23.95 14.79 23.82 14.11 23.82L13.45 23.82L13.45 23L15.52 20.47L11.57 20.47L11.57 19.45L16.98 19.45L16.98 20.25L14.84 22.9ZM20.01 19.45L23.46 19.45C24.33 19.45 25.1 19.62 25.77 19.97C26.44 20.31 26.96 20.79 27.34 21.42C27.71 22.04 27.89 22.75 27.89 23.55C27.89 24.36 27.71 25.07 27.34 25.69C26.96 26.31 26.44 26.8 25.77 27.14C25.1 27.48 24.33 27.66 23.46 27.66L20.01 27.66L20.01 19.45ZM23.39 26.64C24.06 26.64 24.64 26.51 25.14 26.25C25.65 25.99 26.04 25.63 26.31 25.17C26.58 24.7 26.72 24.16 26.72 23.55C26.72 22.95 26.58 22.41 26.31 21.94C26.04 21.48 25.65 21.12 25.14 20.86C24.64 20.6 24.06 20.47 23.39 20.47L21.18 20.47L21.18 26.64L23.39 26.64ZM40.89 26.67L40.89 29.1L39.83 29.1L39.83 27.66L34.64 27.66L34.64 29.1L33.58 29.1L33.58 26.67L33.9 26.67C34.3 26.65 34.58 26.37 34.72 25.83C34.87 25.29 34.97 24.53 35.03 23.54L35.12 21.45L39.94 21.45L39.94 26.67L40.89 26.67ZM36.06 23.62C36.03 24.41 35.96 25.05 35.87 25.56C35.77 26.08 35.59 26.45 35.33 26.67L38.81 26.67L38.81 22.43L36.12 22.43L36.06 23.62ZM43.29 21.45L44.42 21.45L44.42 25.97L48.22 21.45L49.24 21.45L49.24 27.66L48.12 27.66L48.12 23.13L44.32 27.66L43.29 27.66L43.29 21.45ZM54.58 21.39C55.44 21.39 56.09 21.6 56.55 22.02C57.01 22.44 57.24 23.07 57.24 23.91L57.24 27.66L56.17 27.66L56.17 26.84C55.98 27.12 55.71 27.35 55.37 27.5C55.02 27.65 54.61 27.73 54.13 27.73C53.44 27.73 52.88 27.56 52.46 27.22C52.04 26.89 51.83 26.45 51.83 25.9C51.83 25.35 52.03 24.91 52.43 24.58C52.83 24.25 53.46 24.08 54.33 24.08L56.11 24.08L56.11 23.86C56.11 23.37 55.97 23 55.69 22.75C55.41 22.49 54.99 22.36 54.45 22.36C54.08 22.36 53.72 22.42 53.37 22.54C53.02 22.66 52.72 22.82 52.48 23.03L52.01 22.18C52.33 21.93 52.71 21.73 53.16 21.59C53.6 21.45 54.08 21.39 54.58 21.39ZM54.32 26.86C54.75 26.86 55.12 26.76 55.43 26.57C55.74 26.38 55.97 26.11 56.11 25.76L56.11 24.89L54.38 24.89C53.42 24.89 52.95 25.21 52.95 25.85C52.95 26.16 53.07 26.41 53.31 26.59C53.55 26.77 53.89 26.86 54.32 26.86ZM64.77 22.43L61.33 22.43L61.33 27.66L60.2 27.66L60.2 21.45L64.77 21.45L64.77 22.43ZM66.86 21.45L67.98 21.45L67.98 24.08L71.52 24.08L71.52 21.45L72.65 21.45L72.65 27.66L71.52 27.66L71.52 25.05L67.98 25.05L67.98 27.66L66.86 27.66L66.86 21.45ZM78.44 27.73C77.82 27.73 77.26 27.59 76.77 27.32C76.28 27.04 75.89 26.67 75.62 26.19C75.34 25.71 75.2 25.16 75.2 24.55C75.2 23.94 75.34 23.4 75.62 22.92C75.89 22.44 76.28 22.06 76.77 21.79C77.26 21.52 77.82 21.39 78.44 21.39C79.05 21.39 79.61 21.52 80.09 21.79C80.58 22.06 80.96 22.44 81.24 22.92C81.52 23.4 81.66 23.94 81.66 24.55C81.66 25.16 81.52 25.71 81.24 26.19C80.96 26.67 80.58 27.04 80.09 27.32C79.61 27.59 79.05 27.73 78.44 27.73ZM78.44 26.74C78.83 26.74 79.19 26.65 79.51 26.47C79.82 26.28 80.07 26.03 80.25 25.69C80.43 25.36 80.52 24.98 80.52 24.55C80.52 24.12 80.43 23.74 80.25 23.41C80.07 23.08 79.82 22.82 79.51 22.64C79.19 22.46 78.83 22.37 78.44 22.37C78.04 22.37 77.68 22.46 77.36 22.64C77.05 22.82 76.8 23.08 76.61 23.41C76.43 23.74 76.34 24.12 76.34 24.55C76.34 24.98 76.43 25.36 76.61 25.69C76.8 26.03 77.05 26.28 77.36 26.47C77.68 26.65 78.04 26.74 78.44 26.74ZM86.93 27.73C86.3 27.73 85.73 27.59 85.24 27.32C84.74 27.04 84.35 26.67 84.07 26.19C83.79 25.71 83.65 25.16 83.65 24.55C83.65 23.94 83.79 23.4 84.07 22.92C84.35 22.44 84.74 22.06 85.24 21.79C85.73 21.52 86.3 21.39 86.93 21.39C87.49 21.39 88 21.5 88.44 21.73C88.88 21.95 89.22 22.28 89.46 22.71L88.61 23.26C88.41 22.96 88.17 22.74 87.88 22.59C87.59 22.45 87.27 22.37 86.92 22.37C86.51 22.37 86.15 22.46 85.82 22.64C85.5 22.82 85.25 23.08 85.06 23.41C84.88 23.74 84.79 24.12 84.79 24.55C84.79 24.99 84.88 25.37 85.06 25.71C85.25 26.04 85.5 26.29 85.82 26.47C86.15 26.65 86.51 26.74 86.92 26.74C87.27 26.74 87.59 26.67 87.88 26.52C88.17 26.37 88.41 26.15 88.61 25.85L89.46 26.39C89.22 26.82 88.88 27.15 88.44 27.38C88 27.61 87.49 27.73 86.93 27.73ZM96.4 22.43L94.13 22.43L94.13 27.66L93 27.66L93 22.43L90.73 22.43L90.73 21.45L96.4 21.45L96.4 22.43ZM98.49 21.45L99.61 21.45L99.61 25.97L103.42 21.45L104.44 21.45L104.44 27.66L103.31 27.66L103.31 23.13L99.52 27.66L98.49 27.66L98.49 21.45ZM109.97 25.03L108.68 25.03L108.68 27.66L107.56 27.66L107.56 21.45L108.68 21.45L108.68 24.07L109.99 24.07L112.01 21.45L113.22 21.45L110.86 24.43L113.38 27.66L112.06 27.66L109.97 25.03ZM120.9 24.59C120.9 24.67 120.9 24.78 120.88 24.93L115.84 24.93C115.91 25.47 116.15 25.91 116.56 26.24C116.97 26.58 117.48 26.74 118.09 26.74C118.83 26.74 119.43 26.49 119.88 25.99L120.51 26.72C120.22 27.05 119.87 27.3 119.46 27.47C119.04 27.64 118.57 27.73 118.06 27.73C117.4 27.73 116.82 27.59 116.31 27.32C115.8 27.05 115.41 26.68 115.13 26.19C114.86 25.71 114.72 25.16 114.72 24.55C114.72 23.95 114.85 23.41 115.12 22.92C115.39 22.44 115.76 22.06 116.23 21.79C116.71 21.52 117.24 21.39 117.83 21.39C118.43 21.39 118.96 21.52 119.42 21.79C119.89 22.06 120.25 22.44 120.51 22.92C120.77 23.41 120.9 23.96 120.9 24.59ZM117.83 22.34C117.29 22.34 116.84 22.5 116.48 22.83C116.12 23.16 115.9 23.59 115.84 24.12L119.83 24.12C119.76 23.59 119.55 23.17 119.19 22.83C118.82 22.5 118.37 22.34 117.83 22.34ZM131.04 24.42C131.45 24.53 131.78 24.71 132 24.95C132.23 25.19 132.34 25.49 132.34 25.85C132.34 26.22 132.22 26.54 131.97 26.83C131.72 27.12 131.37 27.34 130.93 27.5C130.49 27.66 129.99 27.74 129.45 27.74C128.99 27.74 128.53 27.68 128.09 27.56C127.65 27.44 127.26 27.26 126.92 27.03L127.26 26.18C127.55 26.37 127.89 26.51 128.27 26.62C128.66 26.72 129.04 26.78 129.44 26.78C129.97 26.78 130.39 26.69 130.71 26.5C131.02 26.32 131.18 26.07 131.18 25.76C131.18 25.47 131.05 25.25 130.8 25.09C130.55 24.93 130.19 24.86 129.73 24.86L128.59 24.86L128.59 24.05L129.65 24.05C130.07 24.05 130.4 23.97 130.64 23.82C130.88 23.68 131.01 23.47 131.01 23.21C131.01 22.93 130.86 22.71 130.58 22.56C130.29 22.4 129.91 22.32 129.42 22.32C128.81 22.32 128.15 22.48 127.47 22.8L127.16 21.94C127.92 21.55 128.71 21.36 129.54 21.36C130.04 21.36 130.49 21.43 130.89 21.57C131.29 21.71 131.6 21.91 131.83 22.17C132.05 22.43 132.17 22.72 132.17 23.05C132.17 23.36 132.06 23.63 131.86 23.87C131.66 24.11 131.38 24.3 131.04 24.42ZM140.53 21.45L137.52 28.28C137.26 28.91 136.95 29.36 136.59 29.61C136.23 29.87 135.81 30 135.31 30C135 30 134.71 29.95 134.42 29.85C134.14 29.76 133.9 29.61 133.71 29.43L134.19 28.58C134.51 28.89 134.88 29.04 135.31 29.04C135.58 29.04 135.81 28.97 135.99 28.82C136.18 28.68 136.34 28.43 136.49 28.08L136.69 27.64L133.95 21.45L135.12 21.45L137.29 26.41L139.43 21.45L140.53 21.45ZM145.7 21.66C146.28 21.66 146.79 21.78 147.25 22.04C147.7 22.3 148.05 22.66 148.31 23.11C148.56 23.57 148.69 24.09 148.69 24.68C148.69 25.28 148.55 25.81 148.28 26.28C148.02 26.74 147.64 27.11 147.15 27.36C146.66 27.62 146.1 27.75 145.48 27.75C144.42 27.75 143.61 27.39 143.03 26.67C142.46 25.94 142.17 24.93 142.17 23.61C142.17 22.34 142.44 21.34 142.96 20.62C143.48 19.9 144.28 19.42 145.36 19.18L148.2 18.55L148.36 19.58L145.75 20.14C144.94 20.32 144.33 20.63 143.93 21.06C143.53 21.49 143.31 22.11 143.25 22.91C143.52 22.51 143.86 22.2 144.28 21.98C144.7 21.77 145.18 21.66 145.7 21.66ZM145.5 26.81C145.9 26.81 146.25 26.72 146.56 26.54C146.87 26.36 147.11 26.11 147.28 25.8C147.45 25.48 147.54 25.12 147.54 24.71C147.54 24.1 147.35 23.6 146.98 23.23C146.6 22.85 146.11 22.66 145.5 22.66C144.89 22.66 144.4 22.85 144.02 23.23C143.64 23.6 143.45 24.1 143.45 24.71C143.45 25.12 143.54 25.48 143.71 25.8C143.89 26.11 144.13 26.36 144.45 26.54C144.76 26.72 145.11 26.81 145.5 26.81ZM153.89 27.73C153.28 27.73 152.72 27.59 152.23 27.32C151.74 27.04 151.35 26.67 151.07 26.19C150.8 25.71 150.66 25.16 150.66 24.55C150.66 23.94 150.8 23.4 151.07 22.92C151.35 22.44 151.74 22.06 152.23 21.79C152.72 21.52 153.28 21.39 153.89 21.39C154.51 21.39 155.06 21.52 155.55 21.79C156.04 22.06 156.42 22.44 156.7 22.92C156.98 23.4 157.11 23.94 157.11 24.55C157.11 25.16 156.98 25.71 156.7 26.19C156.42 26.67 156.04 27.04 155.55 27.32C155.06 27.59 154.51 27.73 153.89 27.73ZM153.89 26.74C154.29 26.74 154.65 26.65 154.96 26.47C155.28 26.28 155.53 26.03 155.71 25.69C155.89 25.36 155.98 24.98 155.98 24.55C155.98 24.12 155.89 23.74 155.71 23.41C155.53 23.08 155.28 22.82 154.96 22.64C154.65 22.46 154.29 22.37 153.89 22.37C153.49 22.37 153.14 22.46 152.82 22.64C152.5 22.82 152.25 23.08 152.07 23.41C151.89 23.74 151.79 24.12 151.79 24.55C151.79 24.98 151.89 25.36 152.07 25.69C152.25 26.03 152.5 26.28 152.82 26.47C153.14 26.65 153.49 26.74 153.89 26.74ZM163.91 24.43C164.72 24.64 165.12 25.14 165.12 25.95C165.12 26.49 164.91 26.91 164.5 27.21C164.09 27.51 163.48 27.66 162.67 27.66L159.68 27.66L159.68 21.45L162.56 21.45C163.3 21.45 163.87 21.58 164.29 21.86C164.7 22.14 164.91 22.53 164.91 23.04C164.91 23.37 164.82 23.65 164.64 23.89C164.47 24.13 164.22 24.31 163.91 24.43ZM160.78 24.12L162.47 24.12C162.9 24.12 163.23 24.04 163.45 23.88C163.67 23.73 163.78 23.5 163.78 23.2C163.78 22.61 163.35 22.31 162.47 22.31L160.78 22.31L160.78 24.12ZM162.59 26.79C163.06 26.79 163.41 26.71 163.64 26.57C163.88 26.42 163.99 26.19 163.99 25.87C163.99 25.55 163.89 25.32 163.67 25.16C163.46 25 163.12 24.93 162.66 24.93L160.78 24.93L160.78 26.79L162.59 26.79Z" />
		</g>
	</g>
</svg>