<svg xmlns="http://www.w3.org/2000/svg" viewBox="0 0 64 64" width="64" height="64">
	<defs>
		<clipPath clipPathUnits="userSpaceOnUse" id="cp1">
			<path d="M-148 -1774L212 -1774L212 4962L-148 4962Z" />
		</clipPath>
	</defs>
	<style>
		tspan { white-space:pre }
		.shp0 { fill: none;stroke: #ffffff;stroke-width: 2 } 
		.shp1 { fill: #ffffff } 
	</style>
	<g id="Мобилка-Главная страница" clip-path="url(#cp1)">
		<g id="Сгруппировать 25">
			<path id="Эллипс 10" class="shp0" d="M32 64C14.3 64 0 49.7 0 32C0 14.3 14.3 0 32 0C49.7 0 64 14.3 64 32C64 49.7 49.7 64 32 64Z" />
			<path id="Icon awesome-play" class="shp1" d="M37.84 31.05L29.46 26.28C28.78 25.9 27.73 26.27 27.73 27.23L27.73 36.77C27.73 37.63 28.7 38.14 29.46 37.71L37.84 32.95C38.59 32.52 38.59 31.48 37.84 31.05L37.84 31.05Z" />
		</g>
	</g>
</svg>