<svg xmlns="http://www.w3.org/2000/svg" viewBox="0 0 25 24" width="25" height="24">
	<defs>
		<clipPath clipPathUnits="userSpaceOnUse" id="cp1">
			<path d="M-462 -609L1138 -609L1138 5663L-462 5663Z" />
		</clipPath>
	</defs>
	<style>
		tspan { white-space:pre }
		.shp0 { fill: #ffffff } 
	</style>
	<g id="Главная страница" clip-path="url(#cp1)">
		<g id="Сгруппировать 13">
			<path id="Вычитание 1" fill-rule="evenodd" class="shp0" d="M12 24C8.8 24 5.78 22.75 3.52 20.48C1.25 18.22 0 15.2 0 12C0 8.79 1.25 5.78 3.52 3.52C5.78 1.25 8.79 0 12 0C18.62 0 24 5.38 24 12C24 18.62 18.62 24 12 24ZM6.48 16.33L8.08 16.33L8.08 18L10.16 18L10.16 16.33L13.68 16.33L13.68 15.22L10.16 15.22L10.16 14.31L12.69 14.31C14.18 14.31 15.35 13.98 16.18 13.34C17.02 12.7 17.44 11.77 17.44 10.56C17.44 9.34 17.02 8.4 16.18 7.76C15.36 7.12 14.18 6.8 12.69 6.8L8.08 6.8L8.08 15.22L6.48 15.22L6.48 16.33ZM12.67 12.62L10.16 12.62L10.16 8.56L12.67 8.56C13.53 8.56 14.19 8.73 14.66 9.08C15.11 9.42 15.34 9.93 15.34 10.58C15.34 11.22 15.11 11.73 14.65 12.09C14.19 12.44 13.53 12.62 12.67 12.62Z" />
		</g>
	</g>
</svg>