<svg xmlns="http://www.w3.org/2000/svg" viewBox="0 0 363 405" width="363" height="405">
	<defs>
		<clipPath clipPathUnits="userSpaceOnUse" id="cp1">
			<path d="M-79 -5184L1521 -5184L1521 1088L-79 1088Z" />
		</clipPath>
		<linearGradient id="grd1" gradientUnits="userSpaceOnUse"  x1="1" y1="202.336" x2="430.425" y2="202.336">
			<stop offset="0" stop-color="#4b18a9"  />
			<stop offset="1" stop-color="#923bfe"  />
		</linearGradient>
		<linearGradient id="grd2" gradientUnits="userSpaceOnUse"  x1="1.262" y1="202.334" x2="430.067" y2="202.334">
			<stop offset="0" stop-color="#4b18a9"  />
			<stop offset="1" stop-color="#923bfe"  />
		</linearGradient>
		<linearGradient id="grd3" gradientUnits="userSpaceOnUse"  x1="1.002" y1="202.336" x2="430.427" y2="202.336">
			<stop offset="0" stop-color="#4b18a9"  />
			<stop offset="1" stop-color="#923bfe"  />
		</linearGradient>
		<linearGradient id="grd4" gradientUnits="userSpaceOnUse"  x1="12.016" y1="202.273" x2="414.669" y2="202.273">
			<stop offset="0" stop-color="#4b18a9"  />
			<stop offset="1" stop-color="#923bfe"  />
		</linearGradient>
		<linearGradient id="grd5" gradientUnits="userSpaceOnUse"  x1="12.276" y1="202.272" x2="414.309" y2="202.272">
			<stop offset="0" stop-color="#4b18a9"  />
			<stop offset="1" stop-color="#923bfe"  />
		</linearGradient>
		<linearGradient id="grd6" gradientUnits="userSpaceOnUse"  x1="12.016" y1="202.274" x2="414.669" y2="202.274">
			<stop offset="0" stop-color="#4b18a9"  />
			<stop offset="1" stop-color="#923bfe"  />
		</linearGradient>
		<linearGradient id="grd7" gradientUnits="userSpaceOnUse"  x1="23.452" y1="201.987" x2="399.253" y2="201.987">
			<stop offset="0" stop-color="#4b18a9"  />
			<stop offset="1" stop-color="#923bfe"  />
		</linearGradient>
		<linearGradient id="grd8" gradientUnits="userSpaceOnUse"  x1="23.711" y1="201.985" x2="398.895" y2="201.985">
			<stop offset="0" stop-color="#4b18a9"  />
			<stop offset="1" stop-color="#923bfe"  />
		</linearGradient>
		<linearGradient id="grd9" gradientUnits="userSpaceOnUse"  x1="23.452" y1="201.987" x2="399.254" y2="201.987">
			<stop offset="0" stop-color="#4b18a9"  />
			<stop offset="1" stop-color="#923bfe"  />
		</linearGradient>
		<linearGradient id="grd10" gradientUnits="userSpaceOnUse"  x1="34.881" y1="202.219" x2="383.848" y2="202.219">
			<stop offset="0" stop-color="#4b18a9"  />
			<stop offset="1" stop-color="#923bfe"  />
		</linearGradient>
		<linearGradient id="grd11" gradientUnits="userSpaceOnUse"  x1="35.14" y1="202.218" x2="383.489" y2="202.218">
			<stop offset="0" stop-color="#4b18a9"  />
			<stop offset="1" stop-color="#923bfe"  />
		</linearGradient>
		<linearGradient id="grd12" gradientUnits="userSpaceOnUse"  x1="34.881" y1="202.219" x2="383.848" y2="202.219">
			<stop offset="0" stop-color="#4b18a9"  />
			<stop offset="1" stop-color="#923bfe"  />
		</linearGradient>
		<linearGradient id="grd13" gradientUnits="userSpaceOnUse"  x1="45.865" y1="202.157" x2="368.038" y2="202.157">
			<stop offset="0" stop-color="#4b18a9"  />
			<stop offset="1" stop-color="#923bfe"  />
		</linearGradient>
		<linearGradient id="grd14" gradientUnits="userSpaceOnUse"  x1="46.124" y1="202.156" x2="367.679" y2="202.156">
			<stop offset="0" stop-color="#4b18a9"  />
			<stop offset="1" stop-color="#923bfe"  />
		</linearGradient>
		<linearGradient id="grd15" gradientUnits="userSpaceOnUse"  x1="45.865" y1="202.157" x2="368.038" y2="202.157">
			<stop offset="0" stop-color="#4b18a9"  />
			<stop offset="1" stop-color="#923bfe"  />
		</linearGradient>
		<linearGradient id="grd16" gradientUnits="userSpaceOnUse"  x1="57.403" y1="202.095" x2="352.783" y2="202.095">
			<stop offset="0" stop-color="#4b18a9"  />
			<stop offset="1" stop-color="#923bfe"  />
		</linearGradient>
		<linearGradient id="grd17" gradientUnits="userSpaceOnUse"  x1="57.662" y1="202.093" x2="352.424" y2="202.093">
			<stop offset="0" stop-color="#4b18a9"  />
			<stop offset="1" stop-color="#923bfe"  />
		</linearGradient>
		<linearGradient id="grd18" gradientUnits="userSpaceOnUse"  x1="57.402" y1="202.095" x2="352.784" y2="202.095">
			<stop offset="0" stop-color="#4b18a9"  />
			<stop offset="1" stop-color="#923bfe"  />
		</linearGradient>
		<linearGradient id="grd19" gradientUnits="userSpaceOnUse"  x1="68.421" y1="202.033" x2="337.011" y2="202.033">
			<stop offset="0" stop-color="#4b18a9"  />
			<stop offset="1" stop-color="#923bfe"  />
		</linearGradient>
		<linearGradient id="grd20" gradientUnits="userSpaceOnUse"  x1="68.68" y1="202.031" x2="336.652" y2="202.031">
			<stop offset="0" stop-color="#4b18a9"  />
			<stop offset="1" stop-color="#923bfe"  />
		</linearGradient>
		<linearGradient id="grd21" gradientUnits="userSpaceOnUse"  x1="68.421" y1="202.033" x2="337.011" y2="202.033">
			<stop offset="0" stop-color="#4b18a9"  />
			<stop offset="1" stop-color="#923bfe"  />
		</linearGradient>
		<linearGradient id="grd22" gradientUnits="userSpaceOnUse"  x1="79.488" y1="201.971" x2="321.291" y2="201.971">
			<stop offset="0" stop-color="#4b18a9"  />
			<stop offset="1" stop-color="#923bfe"  />
		</linearGradient>
		<linearGradient id="grd23" gradientUnits="userSpaceOnUse"  x1="79.747" y1="201.969" x2="320.932" y2="201.969">
			<stop offset="0" stop-color="#4b18a9"  />
			<stop offset="1" stop-color="#923bfe"  />
		</linearGradient>
		<linearGradient id="grd24" gradientUnits="userSpaceOnUse"  x1="79.488" y1="201.971" x2="321.291" y2="201.971">
			<stop offset="0" stop-color="#4b18a9"  />
			<stop offset="1" stop-color="#923bfe"  />
		</linearGradient>
		<linearGradient id="grd25" gradientUnits="userSpaceOnUse"  x1="90.506" y1="201.908" x2="305.528" y2="201.908">
			<stop offset="0" stop-color="#4b18a9"  />
			<stop offset="1" stop-color="#923bfe"  />
		</linearGradient>
		<linearGradient id="grd26" gradientUnits="userSpaceOnUse"  x1="90.767" y1="201.907" x2="305.167" y2="201.907">
			<stop offset="0" stop-color="#4b18a9"  />
			<stop offset="1" stop-color="#923bfe"  />
		</linearGradient>
		<linearGradient id="grd27" gradientUnits="userSpaceOnUse"  x1="90.508" y1="201.909" x2="305.526" y2="201.909">
			<stop offset="0" stop-color="#4b18a9"  />
			<stop offset="1" stop-color="#923bfe"  />
		</linearGradient>
		<linearGradient id="grd28" gradientUnits="userSpaceOnUse"  x1="101.969" y1="201.848" x2="290.231" y2="201.848">
			<stop offset="0" stop-color="#4b18a9"  />
			<stop offset="1" stop-color="#923bfe"  />
		</linearGradient>
		<linearGradient id="grd29" gradientUnits="userSpaceOnUse"  x1="102.228" y1="201.845" x2="289.873" y2="201.845">
			<stop offset="0" stop-color="#4b18a9"  />
			<stop offset="1" stop-color="#923bfe"  />
		</linearGradient>
		<linearGradient id="grd30" gradientUnits="userSpaceOnUse"  x1="101.969" y1="201.847" x2="290.232" y2="201.847">
			<stop offset="0" stop-color="#4b18a9"  />
			<stop offset="1" stop-color="#923bfe"  />
		</linearGradient>
		<linearGradient id="grd31" gradientUnits="userSpaceOnUse"  x1="112.964" y1="202.303" x2="274.479" y2="202.303">
			<stop offset="0" stop-color="#4b18a9"  />
			<stop offset="1" stop-color="#923bfe"  />
		</linearGradient>
		<linearGradient id="grd32" gradientUnits="userSpaceOnUse"  x1="113.223" y1="202.302" x2="274.12" y2="202.302">
			<stop offset="0" stop-color="#4b18a9"  />
			<stop offset="1" stop-color="#923bfe"  />
		</linearGradient>
		<linearGradient id="grd33" gradientUnits="userSpaceOnUse"  x1="112.963" y1="202.304" x2="274.479" y2="202.304">
			<stop offset="0" stop-color="#4b18a9"  />
			<stop offset="1" stop-color="#923bfe"  />
		</linearGradient>
		<linearGradient id="grd34" gradientUnits="userSpaceOnUse"  x1="124.477" y1="201.724" x2="259.234" y2="201.724">
			<stop offset="0" stop-color="#4b18a9"  />
			<stop offset="1" stop-color="#923bfe"  />
		</linearGradient>
		<linearGradient id="grd35" gradientUnits="userSpaceOnUse"  x1="124.737" y1="201.721" x2="258.876" y2="201.721">
			<stop offset="0" stop-color="#4b18a9"  />
			<stop offset="1" stop-color="#923bfe"  />
		</linearGradient>
		<linearGradient id="grd36" gradientUnits="userSpaceOnUse"  x1="124.477" y1="201.722" x2="259.235" y2="201.722">
			<stop offset="0" stop-color="#4b18a9"  />
			<stop offset="1" stop-color="#923bfe"  />
		</linearGradient>
		<linearGradient id="grd37" gradientUnits="userSpaceOnUse"  x1="136.193" y1="201.954" x2="244.009" y2="201.954">
			<stop offset="0" stop-color="#4b18a9"  />
			<stop offset="1" stop-color="#923bfe"  />
		</linearGradient>
		<linearGradient id="grd38" gradientUnits="userSpaceOnUse"  x1="136.452" y1="201.953" x2="243.65" y2="201.953">
			<stop offset="0" stop-color="#4b18a9"  />
			<stop offset="1" stop-color="#923bfe"  />
		</linearGradient>
		<linearGradient id="grd39" gradientUnits="userSpaceOnUse"  x1="136.193" y1="201.954" x2="244.01" y2="201.954">
			<stop offset="0" stop-color="#4b18a9"  />
			<stop offset="1" stop-color="#923bfe"  />
		</linearGradient>
	</defs>
	<style>
		tspan { white-space:pre }
		.shp0 { fill: url(#grd1);stroke: #000000 } 
		.shp1 { fill: url(#grd2);stroke: #000000 } 
		.shp2 { fill: url(#grd3);stroke: #000000 } 
		.shp3 { fill: url(#grd4);stroke: #000000 } 
		.shp4 { fill: url(#grd5);stroke: #000000 } 
		.shp5 { fill: url(#grd6);stroke: #000000 } 
		.shp6 { fill: url(#grd7);stroke: #000000 } 
		.shp7 { fill: url(#grd8);stroke: #000000 } 
		.shp8 { fill: url(#grd9);stroke: #000000 } 
		.shp9 { fill: url(#grd10);stroke: #000000 } 
		.shp10 { fill: url(#grd11);stroke: #000000 } 
		.shp11 { fill: url(#grd12);stroke: #000000 } 
		.shp12 { fill: url(#grd13);stroke: #000000 } 
		.shp13 { fill: url(#grd14);stroke: #000000 } 
		.shp14 { fill: url(#grd15);stroke: #000000 } 
		.shp15 { fill: url(#grd16);stroke: #000000 } 
		.shp16 { fill: url(#grd17);stroke: #000000 } 
		.shp17 { fill: url(#grd18);stroke: #000000 } 
		.shp18 { fill: url(#grd19);stroke: #000000 } 
		.shp19 { fill: url(#grd20);stroke: #000000 } 
		.shp20 { fill: url(#grd21);stroke: #000000 } 
		.shp21 { fill: url(#grd22);stroke: #000000 } 
		.shp22 { fill: url(#grd23);stroke: #000000 } 
		.shp23 { fill: url(#grd24);stroke: #000000 } 
		.shp24 { fill: url(#grd25);stroke: #000000 } 
		.shp25 { fill: url(#grd26);stroke: #000000 } 
		.shp26 { fill: url(#grd27);stroke: #000000 } 
		.shp27 { fill: url(#grd28);stroke: #000000 } 
		.shp28 { fill: url(#grd29);stroke: #000000 } 
		.shp29 { fill: url(#grd30);stroke: #000000 } 
		.shp30 { fill: url(#grd31);stroke: #000000 } 
		.shp31 { fill: url(#grd32);stroke: #000000 } 
		.shp32 { fill: url(#grd33);stroke: #000000 } 
		.shp33 { fill: url(#grd34);stroke: #000000 } 
		.shp34 { fill: url(#grd35);stroke: #000000 } 
		.shp35 { fill: url(#grd36);stroke: #000000 } 
		.shp36 { fill: url(#grd37);stroke: #000000 } 
		.shp37 { fill: url(#grd38);stroke: #000000 } 
		.shp38 { fill: url(#grd39);stroke: #000000 } 
	</style>
	<g id="Главная страница" clip-path="url(#cp1)">
		<g id="Сгруппировать 155">
			<g id="Сгруппировать 68">
				<path id="Контур 48" fill-rule="evenodd" class="shp0" d="M181.03 403.67C173.81 403.67 166.6 401.81 160.16 398.09L21.89 318.26C9.02 310.83 1.02 296.99 1.02 282.12L1 122.51C1 107.64 9 93.79 21.87 86.36L160.11 6.57C172.98 -0.86 188.97 -0.86 201.84 6.57L340.11 86.41C352.98 93.84 360.98 107.68 360.98 122.54L361 282.16C361 297.02 353 310.88 340.13 318.31L201.89 398.1C195.46 401.81 188.24 403.67 181.03 403.67ZM180.97 1.52C173.85 1.52 166.73 3.35 160.37 7.02L22.13 86.81C9.41 94.15 1.52 107.83 1.52 122.51L1.54 282.12C1.54 296.8 9.44 310.48 22.15 317.81L160.42 397.65C173.13 404.98 188.92 404.98 201.63 397.65L339.87 317.86C352.58 310.52 360.48 296.84 360.48 282.16L360.46 122.54C360.46 107.87 352.57 94.19 339.85 86.85L201.58 7.02C195.23 3.35 188.1 1.52 180.97 1.52Z" />
			</g>
			<g id="Сгруппировать 69">
				<path id="Контур 49" fill-rule="evenodd" class="shp1" d="M201.71 6.8L339.98 86.63C352.82 94.04 360.72 107.73 360.72 122.54L360.74 282.16C360.74 296.98 352.84 310.67 340 318.08L201.76 397.87C188.93 405.28 173.12 405.28 160.29 397.87L22.02 318.04C9.19 310.63 1.28 296.94 1.28 282.12L1.26 122.51C1.26 107.69 9.17 93.99 22 86.59L160.24 6.8C173.07 -0.61 188.88 -0.61 201.71 6.8ZM199.64 10.39C188.13 3.74 173.83 3.74 162.31 10.39L24.08 90.18C12.56 96.83 5.41 109.21 5.41 122.51L5.43 282.12C5.43 295.42 12.58 307.8 24.09 314.45L162.36 394.28C173.87 400.92 188.18 400.93 199.69 394.28L337.93 314.49C349.44 307.84 356.59 295.45 356.59 282.16L356.57 122.54C356.57 109.25 349.42 96.87 337.91 90.22L199.64 10.39Z" />
				<path id="Контур 50" fill-rule="evenodd" class="shp2" d="M181.03 403.67C173.81 403.67 166.6 401.81 160.16 398.09L21.89 318.26C9.02 310.83 1.02 296.98 1.02 282.12L1 122.51C1 107.65 9 93.79 21.87 86.36L160.11 6.57C172.98 -0.86 188.97 -0.86 201.84 6.57L340.11 86.41C352.98 93.84 360.98 107.68 360.98 122.54L361 282.16C361 297.02 353 310.87 340.13 318.31L201.89 398.1C195.46 401.81 188.24 403.67 181.03 403.67ZM180.97 1.52C173.85 1.52 166.73 3.35 160.37 7.02L22.13 86.81C9.42 94.15 1.52 107.83 1.52 122.51L1.54 282.12C1.54 296.8 9.44 310.48 22.15 317.81L160.42 397.65C173.13 404.98 188.92 404.98 201.63 397.65L339.87 317.86C352.59 310.52 360.48 296.84 360.48 282.16L360.46 122.54C360.46 107.87 352.57 94.19 339.86 86.85L201.58 7.02C195.23 3.35 188.1 1.52 180.97 1.52ZM181.03 399.52C174.53 399.52 168.03 397.85 162.23 394.5L23.96 314.67C12.37 307.98 5.17 295.51 5.17 282.12L5.15 122.51C5.15 109.12 12.35 96.65 23.95 89.95L162.18 10.16C173.78 3.47 188.18 3.47 199.77 10.17L338.04 90C349.63 96.69 356.83 109.16 356.83 122.54L356.85 282.16C356.85 295.55 349.65 308.02 338.06 314.72L199.82 394.5C194.02 397.85 187.53 399.52 181.03 399.52ZM180.97 5.66C174.57 5.66 168.16 7.31 162.44 10.61L24.21 90.4C12.77 97 5.67 109.31 5.67 122.51L5.69 282.12C5.69 295.32 12.79 307.62 24.22 314.22L162.49 394.05C173.92 400.65 188.13 400.65 199.56 394.06L337.8 314.27C349.23 307.67 356.34 295.36 356.33 282.16L356.32 122.54C356.31 109.35 349.21 97.05 337.78 90.45L199.51 10.61C193.79 7.31 187.38 5.66 180.97 5.66Z" />
			</g>
			<g id="Сгруппировать 70">
				<path id="Контур 51" fill-rule="evenodd" class="shp3" d="M180.78 390.69C173.57 390.69 166.35 388.83 159.92 385.12L32.88 311.77C20.01 304.34 12.02 290.49 12.02 275.63L12.02 128.93C12.02 114.07 20.02 100.22 32.89 92.79L159.94 19.43C172.81 11.99 188.8 11.99 201.67 19.43L328.7 92.77C341.58 100.2 349.57 114.05 349.57 128.91L349.56 275.62C349.56 290.48 341.57 304.33 328.7 311.76L201.65 385.12C195.22 388.83 188 390.69 180.78 390.69ZM180.8 14.37C173.68 14.37 166.55 16.21 160.2 19.88L33.15 93.24C20.44 100.57 12.54 114.25 12.54 128.93L12.53 275.63C12.53 290.31 20.43 303.99 33.14 311.33L160.18 384.67C172.89 392.01 188.68 392.01 201.39 384.67L328.44 311.31C341.15 303.97 349.04 290.29 349.04 275.62L349.05 128.91C349.05 114.23 341.16 100.56 328.44 93.22L201.41 19.88C195.06 16.21 187.93 14.37 180.8 14.37Z" />
			</g>
			<g id="Сгруппировать 71">
				<path id="Контур 52" fill-rule="evenodd" class="shp4" d="M201.54 19.65L328.57 92.99C341.41 100.4 349.31 114.1 349.31 128.91L349.3 275.62C349.3 290.43 341.4 304.12 328.57 311.53L201.52 384.89C188.69 392.3 172.88 392.3 160.04 384.89L33.01 311.55C20.18 304.14 12.28 290.45 12.28 275.63L12.28 128.93C12.28 114.11 20.19 100.42 33.02 93.01L160.07 19.65C172.9 12.24 188.71 12.24 201.54 19.65ZM199.47 23.24C187.96 16.6 173.65 16.6 162.14 23.24L35.09 96.6C23.58 103.25 16.43 115.64 16.43 128.93L16.42 275.63C16.42 288.92 23.57 301.31 35.09 307.96L162.12 381.3C173.63 387.95 187.94 387.95 199.45 381.3L326.49 307.94C338 301.3 345.16 288.91 345.16 275.62L345.16 128.91C345.16 115.62 338.01 103.23 326.5 96.58L199.47 23.24Z" />
				<path id="Контур 53" fill-rule="evenodd" class="shp5" d="M180.78 390.69C173.57 390.69 166.35 388.83 159.92 385.12L32.88 311.78C20.01 304.34 12.02 290.49 12.02 275.63L12.02 128.93C12.02 114.07 20.02 100.22 32.89 92.79L159.94 19.43C172.81 12 188.8 12 201.67 19.43L328.7 92.77C341.58 100.2 349.57 114.05 349.57 128.91L349.56 275.62C349.56 290.48 341.57 304.33 328.7 311.76L201.65 385.12C195.22 388.83 188 390.69 180.78 390.69ZM180.8 14.37C173.68 14.37 166.55 16.21 160.19 19.88L33.15 93.24C20.44 100.57 12.54 114.25 12.54 128.93L12.53 275.63C12.53 290.31 20.43 303.99 33.14 311.33L160.17 384.67C172.89 392.01 188.68 392.01 201.39 384.67L328.44 311.31C341.15 303.97 349.04 290.29 349.04 275.62L349.05 128.91C349.05 114.23 341.16 100.56 328.44 93.22L201.41 19.88C195.06 16.21 187.93 14.37 180.8 14.37ZM180.78 386.55C174.28 386.55 167.78 384.87 161.99 381.53L34.96 308.18C23.36 301.49 16.16 289.02 16.16 275.63L16.17 128.93C16.17 115.54 23.37 103.07 34.96 96.38L162.01 23.02C173.6 16.33 188.01 16.33 199.6 23.02L326.63 96.36C338.22 103.05 345.42 115.53 345.42 128.91L345.42 275.62C345.41 289 338.21 301.47 326.62 308.17L199.58 381.52C193.78 384.87 187.28 386.55 180.78 386.55ZM180.8 18.52C174.39 18.52 167.99 20.17 162.27 23.47L35.22 96.83C23.79 103.43 16.69 115.73 16.69 128.93L16.68 275.63C16.68 288.83 23.78 301.13 35.22 307.74L162.25 381.08C173.68 387.68 187.89 387.68 199.32 381.08L326.36 307.72C337.8 301.12 344.9 288.82 344.9 275.62L344.9 128.91C344.9 115.71 337.8 103.41 326.37 96.81L199.34 23.47C193.62 20.17 187.21 18.52 180.8 18.52Z" />
			</g>
			<g id="Сгруппировать 72">
				<path id="Контур 54" fill-rule="evenodd" class="shp6" d="M181.07 377.27C173.86 377.27 166.64 375.42 160.2 371.7L44.38 304.83C31.52 297.4 23.52 283.56 23.52 268.71L23.45 135.15C23.45 120.28 31.45 106.42 44.34 98.98L160.03 32.26C172.9 24.84 188.88 24.84 201.75 32.27L317.57 99.14C330.43 106.57 338.43 120.41 338.43 135.26L338.5 268.82C338.5 283.7 330.5 297.56 317.61 304.99L201.92 371.71C195.49 375.42 188.28 377.27 181.07 377.27ZM180.88 27.22C173.76 27.22 166.64 29.05 160.29 32.71L44.6 99.43C31.87 106.77 23.96 120.46 23.97 135.15L24.03 268.71C24.04 283.38 31.94 297.05 44.64 304.38L160.46 371.25C173.17 378.59 188.95 378.59 201.66 371.26L317.35 304.54C330.08 297.2 337.99 283.51 337.98 268.82L337.92 135.26C337.91 120.59 330.01 106.92 317.31 99.59L201.49 32.72C195.13 29.05 188 27.22 180.88 27.22Z" />
			</g>
			<g id="Сгруппировать 73">
				<path id="Контур 55" fill-rule="evenodd" class="shp7" d="M201.61 32.5L317.44 99.36C330.26 106.77 338.17 120.45 338.17 135.26L338.24 268.82C338.25 283.65 330.33 297.35 317.48 304.76L201.79 371.49C188.96 378.88 173.16 378.88 160.33 371.48L44.51 304.61C31.69 297.2 23.78 283.52 23.77 268.71L23.71 135.15C23.7 120.32 31.62 106.62 44.47 99.21L160.16 32.49C172.99 25.09 188.79 25.09 201.61 32.5ZM199.54 36.09C188.04 29.44 173.74 29.44 162.23 36.08L46.54 102.8C35.01 109.45 27.85 121.85 27.86 135.15L27.92 268.7C27.93 281.99 35.08 294.37 46.59 301.01L162.41 367.88C173.91 374.53 188.21 374.53 199.72 367.89L315.41 301.17C326.94 294.52 334.1 282.13 334.09 268.82L334.03 135.27C334.02 121.98 326.87 109.6 315.36 102.96L199.54 36.09Z" />
				<path id="Контур 56" fill-rule="evenodd" class="shp8" d="M181.07 377.27C173.86 377.27 166.64 375.42 160.2 371.7L44.38 304.83C31.52 297.4 23.52 283.56 23.52 268.71L23.45 135.15C23.45 120.28 31.45 106.42 44.34 98.98L160.03 32.26C172.9 24.84 188.88 24.84 201.75 32.27L317.57 99.14C330.43 106.57 338.43 120.41 338.43 135.26L338.5 268.82C338.5 283.7 330.5 297.56 317.61 304.99L201.92 371.71C195.49 375.42 188.28 377.27 181.07 377.27ZM180.88 27.22C173.76 27.22 166.64 29.05 160.29 32.71L44.6 99.43C31.87 106.77 23.96 120.46 23.97 135.15L24.03 268.71C24.04 283.38 31.94 297.05 44.64 304.38L160.46 371.25C173.17 378.59 188.95 378.59 201.66 371.26L317.35 304.54C330.08 297.2 337.99 283.51 337.98 268.82L337.92 135.26C337.91 120.59 330.01 106.92 317.31 99.59L201.49 32.72C195.13 29.05 188 27.22 180.88 27.22ZM181.07 373.13C174.57 373.13 168.07 371.45 162.28 368.11L46.46 301.24C34.87 294.55 27.67 282.08 27.66 268.7L27.6 135.15C27.59 121.75 34.8 109.27 46.41 102.57L162.1 35.85C173.69 29.17 188.08 29.17 199.67 35.86L315.49 102.73C327.08 109.42 334.28 121.89 334.29 135.27L334.35 268.82C334.36 282.22 327.15 294.7 315.54 301.4L199.85 368.12C194.06 371.46 187.56 373.13 181.07 373.13ZM180.88 31.36C174.47 31.36 168.07 33.01 162.36 36.3L46.67 103.02C35.22 109.63 28.11 121.94 28.12 135.15L28.18 268.7C28.19 281.9 35.29 294.19 46.72 300.79L162.54 367.66C173.96 374.26 188.16 374.26 199.59 367.67L315.28 300.95C326.73 294.34 333.84 282.03 333.83 268.82L333.77 135.27C333.76 122.07 326.66 109.78 315.23 103.18L199.41 36.31C193.7 33.01 187.29 31.36 180.88 31.36Z" />
			</g>
			<g id="Сгруппировать 74">
				<path id="Контур 57" fill-rule="evenodd" class="shp9" d="M181.36 364.38C174.15 364.38 166.93 362.52 160.5 358.8L55.88 298.4C43.02 290.98 35.03 277.15 35.01 262.3L34.88 141.91C34.87 127.01 42.88 113.13 55.79 105.7L160.12 45.61C172.98 38.2 188.96 38.21 201.82 45.63L306.43 106.03C319.29 113.45 327.28 127.29 327.3 142.13L327.43 262.53C327.45 277.43 319.44 291.3 306.52 298.74L202.19 358.83C195.77 362.53 188.56 364.38 181.36 364.38ZM180.95 40.58C173.84 40.58 166.72 42.4 160.38 46.06L56.05 106.15C43.3 113.49 35.38 127.19 35.4 141.91L35.53 262.3C35.55 276.96 43.44 290.62 56.14 297.95L160.75 358.35C173.45 365.68 189.23 365.69 201.93 358.38L306.26 298.29C319.02 290.95 326.93 277.24 326.91 262.53L326.78 142.13C326.77 127.47 318.87 113.81 306.17 106.48L201.56 46.08C195.2 42.41 188.07 40.58 180.95 40.58Z" />
			</g>
			<g id="Сгруппировать 75">
				<path id="Контур 58" fill-rule="evenodd" class="shp10" d="M201.69 45.86L306.3 106.26C319.12 113.66 327.02 127.33 327.04 142.13L327.17 262.53C327.19 277.38 319.26 291.1 306.39 298.51L202.06 358.6C189.24 365.99 173.44 365.98 160.63 358.58L56.01 298.18C43.19 290.78 35.29 277.11 35.27 262.3L35.14 141.91C35.13 127.06 43.05 113.33 55.92 105.92L160.25 45.83C173.08 38.45 188.87 38.46 201.69 45.86ZM199.61 49.45C188.11 42.81 173.82 42.8 162.32 49.43L57.99 109.51C46.44 116.17 39.27 128.58 39.29 141.9L39.42 262.3C39.43 275.58 46.58 287.95 58.08 294.59L162.7 354.99C174.2 361.63 188.49 361.63 199.99 355.01L304.32 294.92C315.87 288.27 323.04 275.86 323.02 262.53L322.89 142.14C322.88 128.86 315.73 116.49 304.23 109.85L199.61 49.45Z" />
				<path id="Контур 59" fill-rule="evenodd" class="shp11" d="M181.36 364.38C174.15 364.38 166.93 362.52 160.5 358.8L55.88 298.4C43.02 290.98 35.03 277.15 35.01 262.3L34.88 141.91C34.87 127.01 42.88 113.13 55.79 105.7L160.12 45.61C172.98 38.2 188.96 38.21 201.82 45.63L306.43 106.03C319.29 113.46 327.28 127.29 327.3 142.13L327.43 262.53C327.45 277.43 319.44 291.3 306.52 298.74L202.19 358.83C195.77 362.53 188.56 364.38 181.36 364.38ZM180.95 40.58C173.84 40.58 166.72 42.4 160.38 46.06L56.05 106.15C43.3 113.49 35.38 127.19 35.4 141.91L35.53 262.3C35.55 276.96 43.44 290.62 56.14 297.95L160.75 358.35C173.45 365.68 189.23 365.69 201.93 358.38L306.26 298.29C319.02 290.95 326.93 277.24 326.91 262.53L326.78 142.13C326.77 127.47 318.87 113.81 306.17 106.48L201.56 46.08C195.2 42.41 188.07 40.58 180.95 40.58ZM181.36 360.23C174.86 360.23 168.36 358.56 162.57 355.21L57.95 294.81C46.37 288.13 39.17 275.67 39.16 262.3L39.03 141.9C39.01 128.48 46.23 115.99 57.86 109.29L162.19 49.2C173.78 42.53 188.16 42.54 199.74 49.22L304.36 109.62C315.94 116.31 323.14 128.77 323.15 142.14L323.28 262.53C323.3 275.95 316.08 288.45 304.45 295.14L200.12 355.23C194.34 358.56 187.85 360.23 181.36 360.23ZM180.95 44.72C174.55 44.72 168.16 46.37 162.45 49.65L58.12 109.74C46.65 116.34 39.53 128.67 39.55 141.9L39.68 262.3C39.69 275.48 46.79 287.77 58.21 294.36L162.83 354.76C174.25 361.35 188.44 361.36 199.86 354.78L304.19 294.7C315.66 288.09 322.78 275.77 322.76 262.53L322.63 142.14C322.62 128.95 315.52 116.67 304.1 110.07L199.48 49.67C193.77 46.37 187.36 44.72 180.95 44.72Z" />
			</g>
			<g id="Сгруппировать 76">
				<path id="Контур 60" fill-rule="evenodd" class="shp12" d="M181.08 351.4C173.86 351.4 166.65 349.54 160.21 345.83L66.83 291.91C53.98 284.49 45.98 270.66 45.97 255.81L45.86 148.32C45.85 133.43 53.86 119.56 66.77 112.12L159.9 58.46C172.77 51.05 188.75 51.06 201.61 58.49L294.98 112.4C307.84 119.82 315.84 133.65 315.85 148.5L315.95 255.99C315.97 270.88 307.96 284.75 295.05 292.19L201.91 345.85C195.48 349.55 188.28 351.4 181.08 351.4ZM180.74 53.43C173.62 53.43 166.51 55.26 160.16 58.91L67.03 112.57C54.28 119.91 46.37 133.61 46.38 148.32L46.49 255.81C46.5 270.47 54.4 284.14 67.09 291.47L160.47 345.38C173.17 352.71 188.95 352.72 201.65 345.4L294.79 291.74C307.54 284.4 315.45 270.7 315.43 255.99L315.33 148.5C315.32 133.84 307.42 120.18 294.72 112.85L201.35 58.93C194.99 55.27 187.86 53.43 180.74 53.43Z" />
			</g>
			<g id="Сгруппировать 77">
				<path id="Контур 61" fill-rule="evenodd" class="shp13" d="M201.48 58.71L294.85 112.62C307.67 120.02 315.58 133.7 315.59 148.5L315.69 255.99C315.71 270.83 307.78 284.56 294.92 291.97L201.78 345.62C188.95 353.01 173.16 353 160.34 345.6L66.96 291.69C54.14 284.29 46.24 270.61 46.23 255.81L46.12 148.32C46.11 133.48 54.03 119.76 66.9 112.35L160.03 58.69C172.86 51.3 188.65 51.31 201.48 58.71ZM199.4 62.3C187.9 55.66 173.61 55.66 162.1 62.28L68.97 115.94C57.42 122.59 50.26 135 50.27 148.32L50.37 255.81C50.39 269.09 57.54 281.46 69.04 288.1L162.41 342.01C173.91 348.65 188.21 348.66 199.71 342.03L292.85 288.37C304.39 281.72 311.56 269.31 311.54 255.99L311.44 148.5C311.43 135.23 304.28 122.85 292.78 116.21L199.4 62.3Z" />
				<path id="Контур 62" fill-rule="evenodd" class="shp14" d="M181.08 351.4C173.86 351.4 166.65 349.54 160.21 345.83L66.83 291.91C53.98 284.49 45.98 270.66 45.97 255.81L45.86 148.32C45.85 133.43 53.86 119.56 66.77 112.12L159.9 58.47C172.77 51.05 188.75 51.06 201.6 58.49L294.98 112.4C307.84 119.82 315.84 133.65 315.85 148.5L315.95 255.99C315.97 270.88 307.96 284.75 295.05 292.19L201.91 345.85C195.49 349.55 188.28 351.4 181.08 351.4ZM180.74 53.43C173.62 53.43 166.51 55.26 160.16 58.91L67.03 112.57C54.28 119.91 46.37 133.61 46.38 148.32L46.49 255.81C46.5 270.47 54.4 284.14 67.09 291.47L160.47 345.38C173.17 352.71 188.95 352.72 201.65 345.4L294.79 291.74C307.54 284.4 315.45 270.7 315.43 255.99L315.33 148.5C315.32 133.84 307.42 120.18 294.72 112.85L201.35 58.93C194.99 55.27 187.86 53.43 180.74 53.43ZM181.08 347.25C174.58 347.25 168.08 345.58 162.28 342.23L68.91 288.32C57.33 281.64 50.13 269.18 50.11 255.81L50.01 148.32C50 134.9 57.21 122.41 68.84 115.71L161.97 62.06C173.56 55.38 187.95 55.39 199.53 62.08L292.91 115.99C304.49 122.67 311.69 135.13 311.7 148.5L311.8 255.99C311.82 269.41 304.6 281.9 292.98 288.6L199.84 342.25C194.05 345.59 187.57 347.25 181.08 347.25ZM180.74 57.58C174.34 57.58 167.94 59.22 162.23 62.51L69.1 116.16C57.63 122.77 50.52 135.09 50.53 148.32L50.63 255.81C50.64 268.99 57.75 281.28 69.17 287.87L162.54 341.79C173.96 348.38 188.16 348.39 199.58 341.8L292.72 288.15C304.18 281.54 311.3 269.22 311.29 255.99L311.18 148.5C311.17 135.32 304.07 123.03 292.65 116.44L199.27 62.53C193.56 59.23 187.15 57.58 180.74 57.58Z" />
			</g>
			<g id="Сгруппировать 78">
				<path id="Контур 63" fill-rule="evenodd" class="shp15" d="M181.35 338.42C174.13 338.42 166.92 336.56 160.48 332.85L78.35 285.43C65.49 278 57.49 264.17 57.48 249.32L57.4 154.74C57.39 139.85 65.4 125.98 78.3 118.55L160.24 71.32C173.11 63.91 189.09 63.91 201.95 71.34L284.09 118.76C296.95 126.18 304.94 140.02 304.95 154.87L305.03 249.45C305.04 264.34 297.03 278.21 284.13 285.64L202.19 332.87C195.76 336.57 188.55 338.42 181.35 338.42ZM181.08 66.28C173.97 66.28 166.85 68.11 160.5 71.77L78.56 118.99C65.82 126.34 57.91 140.03 57.92 154.74L58 249.32C58.01 263.98 65.9 277.65 78.6 284.98L160.74 332.4C173.44 339.73 189.22 339.74 201.93 332.42L283.87 285.19C296.61 277.85 304.52 264.15 304.51 249.45L304.44 154.87C304.42 140.21 296.53 126.54 283.83 119.21L201.69 71.79C195.34 68.12 188.21 66.28 181.08 66.28Z" />
			</g>
			<g id="Сгруппировать 79">
				<path id="Контур 64" fill-rule="evenodd" class="shp16" d="M201.82 71.56L283.96 118.98C296.78 126.39 304.68 140.06 304.69 154.87L304.77 249.45C304.78 264.29 296.86 278.01 284 285.42L202.06 332.64C189.23 340.03 173.43 340.03 160.61 332.62L78.48 285.2C65.65 277.8 57.75 264.12 57.74 249.32L57.66 154.74C57.65 139.9 65.57 126.18 78.43 118.77L160.37 71.55C173.2 64.15 189 64.16 201.82 71.56ZM199.75 75.15C188.24 68.51 173.95 68.51 162.44 75.14L80.5 122.36C68.96 129.01 61.8 141.42 61.81 154.74L61.89 249.31C61.9 262.59 69.05 274.97 80.55 281.61L162.68 329.03C174.19 335.67 188.48 335.68 199.99 329.05L281.93 281.82C293.47 275.17 300.63 262.77 300.62 249.45L300.55 154.87C300.54 141.59 293.38 129.22 281.88 122.58L199.75 75.15Z" />
				<path id="Контур 65" fill-rule="evenodd" class="shp17" d="M181.35 338.42C174.13 338.42 166.92 336.56 160.48 332.85L78.35 285.43C65.49 278 57.49 264.17 57.48 249.32L57.4 154.74C57.39 139.85 65.4 125.98 78.3 118.55L160.24 71.32C173.11 63.91 189.09 63.91 201.95 71.34L284.09 118.76C296.95 126.18 304.94 140.02 304.95 154.87L305.03 249.45C305.04 264.34 297.03 278.21 284.13 285.64L202.19 332.87C195.76 336.57 188.55 338.42 181.35 338.42ZM181.08 66.28C173.97 66.28 166.85 68.11 160.5 71.77L78.56 118.99C65.82 126.34 57.91 140.03 57.92 154.74L58 249.32C58.01 263.98 65.9 277.65 78.6 284.98L160.74 332.4C173.44 339.73 189.22 339.74 201.93 332.42L283.87 285.19C296.61 277.85 304.52 264.15 304.51 249.45L304.43 154.87C304.42 140.21 296.53 126.54 283.83 119.21L201.69 71.79C195.34 68.12 188.21 66.28 181.08 66.28ZM181.35 334.28C174.85 334.28 168.35 332.6 162.55 329.26L80.42 281.84C68.84 275.15 61.64 262.69 61.63 249.31L61.55 154.74C61.54 141.33 68.75 128.83 80.37 122.14L162.32 74.91C173.9 68.24 188.29 68.24 199.88 74.93L282.01 122.35C293.59 129.04 300.8 141.5 300.81 154.87L300.88 249.45C300.89 262.86 293.68 275.35 282.06 282.05L200.12 329.27C194.33 332.61 187.84 334.28 181.35 334.28ZM181.08 70.43C174.68 70.43 168.28 72.07 162.57 75.36L80.63 122.59C69.17 129.19 62.06 141.51 62.07 154.73L62.14 249.31C62.15 262.5 69.26 274.79 80.68 281.39L162.81 328.81C174.24 335.4 188.43 335.41 199.86 328.82L281.8 281.6C293.26 274.99 300.37 262.68 300.36 249.45L300.29 154.87C300.28 141.68 293.17 129.39 281.75 122.8L199.62 75.38C193.9 72.08 187.49 70.43 181.08 70.43Z" />
			</g>
			<g id="Сгруппировать 80">
				<path id="Контур 66" fill-rule="evenodd" class="shp18" d="M181.1 325.44C173.88 325.44 166.67 323.59 160.23 319.87L89.34 278.94C76.47 271.51 68.48 257.68 68.47 242.82L68.42 161.15C68.41 146.27 76.42 132.4 89.31 124.97L160.06 84.18C172.93 76.76 188.91 76.77 201.78 84.19L272.67 125.12C285.53 132.55 293.53 146.39 293.54 161.24L293.59 242.91C293.6 257.79 285.59 271.66 272.7 279.09L201.94 319.88C195.51 323.59 188.31 325.44 181.1 325.44ZM180.91 79.14C173.79 79.14 166.67 80.97 160.32 84.63L89.57 125.42C76.84 132.76 68.93 146.45 68.94 161.15L68.99 242.82C69 257.49 76.89 271.16 89.6 278.49L160.49 319.42C173.19 326.76 188.98 326.76 201.68 319.44L272.44 278.64C285.17 271.3 293.08 257.61 293.07 242.91L293.02 161.24C293.01 146.57 285.11 132.9 272.41 125.57L201.52 84.64C195.16 80.97 188.04 79.14 180.91 79.14Z" />
			</g>
			<g id="Сгруппировать 81">
				<path id="Контур 67" fill-rule="evenodd" class="shp19" d="M201.65 84.42L272.54 125.35C285.37 132.75 293.27 146.43 293.28 161.24L293.33 242.91C293.34 257.75 285.42 271.46 272.57 278.87L201.81 319.66C188.99 327.06 173.19 327.05 160.36 319.65L89.47 278.72C76.64 271.31 68.74 257.63 68.73 242.82L68.68 161.15C68.67 146.32 76.59 132.6 89.44 125.19L160.19 84.4C173.02 77.01 188.82 77.01 201.65 84.42ZM199.57 88.01C188.07 81.37 173.77 81.36 162.27 88L91.51 128.79C79.98 135.44 72.82 147.84 72.83 161.15L72.88 242.82C72.89 256.1 80.04 268.48 91.54 275.12L162.43 316.05C173.94 322.7 188.23 322.7 199.74 316.07L270.5 275.27C282.03 268.63 289.19 256.23 289.18 242.91L289.13 161.24C289.12 147.96 281.97 135.58 270.47 128.94L199.57 88.01Z" />
				<path id="Контур 68" fill-rule="evenodd" class="shp20" d="M181.1 325.44C173.88 325.44 166.67 323.59 160.23 319.87L89.34 278.94C76.48 271.51 68.48 257.68 68.47 242.82L68.42 161.15C68.41 146.27 76.42 132.4 89.31 124.97L160.07 84.18C172.93 76.76 188.91 76.77 201.78 84.19L272.67 125.12C285.53 132.55 293.53 146.39 293.54 161.24L293.59 242.91C293.6 257.79 285.59 271.66 272.7 279.09L201.94 319.88C195.51 323.59 188.31 325.44 181.1 325.44ZM180.91 79.14C173.79 79.14 166.67 80.97 160.32 84.63L89.57 125.42C76.84 132.76 68.93 146.45 68.94 161.15L68.99 242.82C69 257.49 76.89 271.16 89.6 278.49L160.49 319.42C173.19 326.76 188.98 326.76 201.68 319.43L272.44 278.64C285.17 271.3 293.08 257.61 293.07 242.91L293.02 161.24C293.01 146.57 285.11 132.9 272.41 125.57L201.52 84.64C195.16 80.97 188.04 79.14 180.91 79.14ZM181.1 321.3C174.6 321.3 168.1 319.62 162.31 316.28L91.41 275.35C79.83 268.66 72.63 256.2 72.62 242.82L72.57 161.15C72.56 147.74 79.77 135.26 91.38 128.56L162.14 87.77C173.72 81.09 188.12 81.09 199.7 87.78L270.6 128.71C282.18 135.4 289.38 147.87 289.39 161.24L289.44 242.91C289.45 256.32 282.24 268.8 270.63 275.5L199.87 316.29C194.08 319.63 187.59 321.3 181.1 321.3ZM180.91 83.28C174.51 83.28 168.11 84.93 162.39 88.22L91.64 129.01C80.19 135.62 73.08 147.93 73.09 161.15L73.14 242.82C73.14 256.01 80.25 268.3 91.67 274.9L162.56 315.83C173.99 322.43 188.19 322.43 199.61 315.84L270.37 275.05C281.82 268.45 288.93 256.13 288.92 242.91L288.87 161.24C288.86 148.05 281.76 135.76 270.34 129.16L199.44 88.23C193.73 84.93 187.32 83.28 180.91 83.28Z" />
			</g>
			<g id="Сгруппировать 82">
				<path id="Контур 69" fill-rule="evenodd" class="shp21" d="M180.9 312.47C173.68 312.47 166.47 310.61 160.03 306.89L100.38 272.45C87.52 265.03 79.52 251.18 79.52 236.33L79.49 167.56C79.48 152.69 87.48 138.83 100.37 131.4L159.93 97.04C172.8 89.61 188.79 89.62 201.65 97.05L261.3 131.48C274.17 138.91 282.17 152.75 282.17 167.61L282.2 236.37C282.2 251.25 274.2 265.11 261.32 272.54L201.75 306.9C195.32 310.61 188.11 312.47 180.9 312.47ZM180.79 91.99C173.67 91.99 166.55 93.82 160.19 97.49L100.63 131.84C87.9 139.19 80 152.87 80.01 167.56L80.03 236.33C80.04 251 87.94 264.67 100.64 272.01L160.29 306.44C173 313.78 188.78 313.78 201.49 306.45L261.06 272.09C273.78 264.75 281.69 251.07 281.68 236.37L281.65 167.61C281.65 152.94 273.75 139.27 261.04 131.93L201.4 97.49C195.04 93.83 187.91 91.99 180.79 91.99Z" />
			</g>
			<g id="Сгруппировать 83">
				<path id="Контур 70" fill-rule="evenodd" class="shp22" d="M201.53 97.27L261.17 131.71C274 139.11 281.91 152.8 281.91 167.61L281.94 236.37C281.94 251.2 274.03 264.91 261.19 272.32L201.62 306.68C188.79 314.08 172.99 314.07 160.16 306.67L100.51 272.23C87.68 264.82 79.78 251.14 79.77 236.33L79.75 167.56C79.74 152.73 87.65 139.03 100.5 131.62L160.06 97.26C172.89 89.86 188.7 89.86 201.53 97.27ZM199.45 100.86C187.94 94.22 173.65 94.22 162.14 100.85L102.57 135.21C91.05 141.86 83.89 154.26 83.9 167.56L83.92 236.33C83.93 249.61 91.08 261.99 102.59 268.64L162.23 303.08C173.74 309.72 188.04 309.72 199.55 303.08L259.11 268.73C270.64 262.08 277.8 249.68 277.79 236.38L277.76 167.61C277.76 154.33 270.61 141.94 259.1 135.3L199.45 100.86Z" />
				<path id="Контур 71" fill-rule="evenodd" class="shp23" d="M180.9 312.47C173.68 312.47 166.47 310.61 160.03 306.89L100.38 272.45C87.52 265.03 79.52 251.18 79.52 236.33L79.49 167.56C79.48 152.69 87.48 138.83 100.37 131.4L159.93 97.04C172.8 89.61 188.79 89.62 201.66 97.05L261.3 131.48C274.17 138.91 282.17 152.75 282.17 167.61L282.2 236.37C282.2 251.25 274.2 265.11 261.32 272.54L201.75 306.9C195.32 310.61 188.11 312.47 180.9 312.47ZM180.79 91.99C173.67 91.99 166.55 93.82 160.19 97.49L100.63 131.85C87.9 139.19 80 152.87 80.01 167.56L80.03 236.33C80.04 251 87.94 264.67 100.64 272.01L160.29 306.44C173 313.78 188.78 313.78 201.49 306.45L261.06 272.09C273.78 264.75 281.69 251.07 281.68 236.37L281.65 167.61C281.65 152.94 273.75 139.27 261.04 131.93L201.4 97.49C195.04 93.83 187.91 91.99 180.79 91.99ZM180.9 308.32C174.4 308.32 167.9 306.65 162.1 303.3L102.46 268.86C90.87 262.17 83.67 249.71 83.66 236.33L83.64 167.56C83.63 154.16 90.84 141.68 102.44 134.99L162.01 100.63C173.6 93.95 187.99 93.95 199.58 100.64L259.23 135.08C270.82 141.77 278.02 154.23 278.02 167.61L278.05 236.38C278.06 249.77 270.85 262.26 259.24 268.95L199.68 303.31C193.89 306.65 187.39 308.32 180.9 308.32ZM180.79 96.14C174.38 96.14 167.98 97.78 162.27 101.08L102.7 135.44C91.26 142.04 84.15 154.35 84.15 167.56L84.18 236.33C84.19 249.52 91.29 261.82 102.72 268.41L162.36 302.85C173.79 309.45 187.99 309.45 199.42 302.86L258.99 268.5C270.43 261.9 277.54 249.59 277.53 236.38L277.51 167.61C277.5 154.42 270.4 142.12 258.97 135.52L199.32 101.09C193.61 97.79 187.2 96.14 180.79 96.14Z" />
			</g>
			<g id="Сгруппировать 84">
				<path id="Контур 72" fill-rule="evenodd" class="shp24" d="M180.65 299.49C173.44 299.49 166.22 297.63 159.78 293.91L111.38 265.97C98.51 258.54 90.52 244.69 90.52 229.83L90.51 173.97C90.5 159.1 98.5 145.25 111.38 137.82L159.76 109.9C172.63 102.47 188.62 102.47 201.49 109.9L249.89 137.84C262.76 145.27 270.76 159.12 270.76 173.98L270.76 229.84C270.77 244.71 262.77 258.56 249.89 265.99L201.51 293.91C195.08 297.63 187.87 299.49 180.65 299.49ZM180.62 104.84C173.49 104.84 166.37 106.68 160.01 110.35L111.64 138.27C98.92 145.61 91.02 159.29 91.02 173.97L91.04 229.83C91.04 244.51 98.93 258.18 111.64 265.52L160.04 293.46C172.75 300.8 188.55 300.8 201.26 293.47L249.63 265.54C262.35 258.2 270.25 244.52 270.25 229.84L270.24 173.98C270.24 159.31 262.34 145.63 249.63 138.29L201.23 110.35C194.87 106.68 187.75 104.84 180.62 104.84Z" />
			</g>
			<g id="Сгруппировать 85">
				<path id="Контур 73" fill-rule="evenodd" class="shp25" d="M201.36 110.12L249.76 138.07C262.59 145.48 270.5 159.17 270.5 173.98L270.5 229.84C270.51 244.66 262.6 258.36 249.76 265.77L201.38 293.69C188.55 301.1 172.74 301.1 159.91 293.69L111.51 265.74C98.68 258.34 90.78 244.65 90.77 229.83L90.77 173.97C90.77 159.15 98.67 145.46 111.51 138.05L159.89 110.12C172.72 102.72 188.53 102.72 201.36 110.12ZM199.29 113.72C187.77 107.07 173.47 107.07 161.96 113.71L113.58 141.64C102.07 148.29 94.91 160.67 94.91 173.97L94.92 229.83C94.92 243.12 102.07 255.51 113.59 262.15L161.99 290.1C173.5 296.74 187.8 296.74 199.31 290.1L247.69 262.18C259.21 255.53 266.36 243.14 266.36 229.84L266.35 173.98C266.35 160.69 259.2 148.31 247.69 141.66L199.29 113.72Z" />
				<path id="Контур 74" fill-rule="evenodd" class="shp26" d="M180.65 299.49C173.43 299.49 166.22 297.63 159.78 293.91L111.38 265.97C98.51 258.54 90.52 244.69 90.51 229.83L90.51 173.97C90.51 159.11 98.5 145.25 111.38 137.82L159.76 109.9C172.63 102.47 188.62 102.47 201.49 109.9L249.89 137.84C262.76 145.27 270.76 159.12 270.76 173.98L270.76 229.84C270.77 244.71 262.77 258.56 249.89 265.99L201.51 293.92C195.08 297.63 187.86 299.49 180.65 299.49ZM180.62 104.85C173.5 104.85 166.37 106.68 160.02 110.35L111.64 138.27C98.92 145.61 91.02 159.29 91.03 173.97L91.03 229.83C91.03 244.51 98.93 258.18 111.64 265.52L160.04 293.47C172.75 300.8 188.54 300.8 201.25 293.47L249.63 265.54C262.35 258.2 270.25 244.52 270.25 229.84L270.24 173.98C270.24 159.31 262.34 145.63 249.63 138.29L201.23 110.35C194.87 106.68 187.75 104.85 180.62 104.85ZM180.65 295.34C174.15 295.34 167.65 293.67 161.86 290.32L113.46 262.38C101.86 255.69 94.66 243.21 94.66 229.83L94.66 173.97C94.65 160.58 101.86 148.11 113.45 141.41L161.83 113.49C173.42 106.8 187.82 106.8 199.41 113.49L247.82 141.44C259.41 148.13 266.61 160.6 266.61 173.98L266.62 229.84C266.62 243.23 259.41 255.71 247.82 262.4L199.44 290.32C193.65 293.67 187.15 295.34 180.65 295.34ZM180.62 108.99C174.21 108.99 167.81 110.64 162.09 113.94L113.71 141.86C102.28 148.46 95.17 160.77 95.17 173.97L95.18 229.83C95.18 243.03 102.28 255.33 113.71 261.93L162.12 289.87C173.55 296.47 187.75 296.47 199.18 289.88L247.56 261.95C259 255.35 266.1 243.05 266.1 229.84L266.09 173.98C266.09 160.78 258.99 148.49 247.56 141.89L199.16 113.94C193.44 110.64 187.03 108.99 180.62 108.99Z" />
			</g>
			<g id="Сгруппировать 86">
				<path id="Контур 75" fill-rule="evenodd" class="shp27" d="M180.85 286.51C173.64 286.51 166.42 284.65 159.99 280.93L122.84 259.49C109.96 252.05 101.97 238.2 101.97 223.33L101.98 180.38C101.98 165.52 109.98 151.68 122.84 144.25L160.03 122.76C172.91 115.33 188.9 115.32 201.78 122.76L238.93 144.2C251.8 151.64 259.8 165.49 259.79 180.36L259.78 223.31C259.78 238.17 251.79 252.01 238.93 259.44L201.73 280.93C195.29 284.65 188.07 286.51 180.85 286.51ZM180.91 117.7C173.78 117.7 166.65 119.54 160.29 123.21L123.1 144.7C110.4 152.04 102.5 165.71 102.5 180.38L102.49 223.33C102.48 238.02 110.38 251.7 123.1 259.04L160.25 280.49C172.96 287.83 188.76 287.82 201.47 280.48L238.67 258.99C251.37 251.66 259.26 237.98 259.27 223.31L259.28 180.36C259.28 165.68 251.38 152 238.67 144.65L201.52 123.21C195.16 119.54 188.04 117.7 180.91 117.7Z" />
			</g>
			<g id="Сгруппировать 87">
				<path id="Контур 76" fill-rule="evenodd" class="shp28" d="M201.65 122.98L238.8 144.43C251.63 151.84 259.54 165.54 259.54 180.36L259.52 223.31C259.52 238.12 251.62 251.81 238.8 259.22L201.6 280.7C188.77 288.12 172.95 288.12 160.12 280.71L122.97 259.26C110.13 251.85 102.22 238.15 102.23 223.33L102.24 180.38C102.24 165.57 110.14 151.88 122.97 144.47L160.16 122.99C173 115.57 188.81 115.57 201.65 122.98ZM199.57 126.57C188.06 119.92 173.75 119.93 162.24 126.58L125.04 148.06C113.54 154.71 106.39 167.09 106.39 180.38L106.38 223.33C106.37 236.63 113.52 249.02 125.04 255.67L162.19 277.12C173.71 283.77 188.01 283.76 199.53 277.11L236.72 255.63C248.23 248.98 255.37 236.6 255.38 223.31L255.39 180.36C255.39 167.06 248.24 154.67 236.72 148.02L199.57 126.57Z" />
				<path id="Контур 77" fill-rule="evenodd" class="shp29" d="M180.85 286.51C173.64 286.51 166.42 284.65 159.99 280.93L122.84 259.49C109.96 252.05 101.97 238.2 101.97 223.33L101.98 180.38C101.98 165.52 109.98 151.68 122.84 144.25L160.03 122.76C172.91 115.32 188.9 115.32 201.78 122.76L238.93 144.2C251.8 151.64 259.8 165.49 259.79 180.36L259.78 223.31C259.78 238.17 251.79 252.01 238.93 259.44L201.73 280.93C195.29 284.65 188.07 286.51 180.85 286.51ZM180.91 117.7C173.78 117.7 166.65 119.54 160.29 123.21L123.1 144.7C110.39 152.03 102.5 165.71 102.5 180.38L102.49 223.33C102.48 238.01 110.38 251.69 123.1 259.04L160.25 280.49C172.96 287.83 188.76 287.82 201.47 280.48L238.67 258.99C251.37 251.66 259.26 237.98 259.27 223.31L259.28 180.36C259.28 165.68 251.38 152 238.67 144.65L201.52 123.21C195.16 119.54 188.04 117.7 180.91 117.7ZM180.85 282.36C174.35 282.36 167.86 280.69 162.06 277.34L124.91 255.89C113.31 249.2 106.11 236.72 106.12 223.33L106.13 180.38C106.13 167 113.33 154.53 124.91 147.84L162.11 126.35C173.7 119.66 188.11 119.65 199.7 126.35L236.85 147.8C248.45 154.49 255.65 166.97 255.65 180.36L255.64 223.31C255.63 236.69 248.44 249.16 236.85 255.85L199.66 277.34C193.86 280.69 187.36 282.36 180.85 282.36ZM180.91 121.85C174.5 121.85 168.09 123.5 162.37 126.8L125.17 148.29C113.75 154.89 106.65 167.18 106.65 180.38L106.64 223.33C106.63 236.54 113.73 248.84 125.17 255.44L162.32 276.89C173.76 283.49 187.96 283.49 199.4 276.89L236.59 255.4C248.02 248.8 255.11 236.51 255.12 223.31L255.13 180.36C255.13 167.15 248.03 154.85 236.59 148.25L199.44 126.8C193.73 123.5 187.32 121.85 180.91 121.85Z" />
			</g>
			<g id="Сгруппировать 88">
				<path id="Контур 78" fill-rule="evenodd" class="shp30" d="M180.59 274.04C173.38 274.04 166.16 272.19 159.73 268.47L133.83 253.52C120.95 246.08 112.95 232.22 112.96 217.35L112.98 187.29C113 172.46 120.98 158.62 133.83 151.2L159.84 136.15C172.72 128.7 188.72 128.7 201.61 136.13L227.5 151.08C240.38 158.52 248.38 172.38 248.37 187.26L248.34 217.31C248.33 232.15 240.35 245.98 227.5 253.41L201.49 268.45C195.04 272.18 187.82 274.04 180.59 274.04ZM180.74 131.08C173.6 131.08 166.47 132.92 160.1 136.6L134.09 151.64C121.4 158.98 113.51 172.64 113.5 187.29L113.48 217.35C113.47 232.04 121.37 245.73 134.09 253.07L159.98 268.02C172.71 275.37 188.51 275.36 201.23 268.01L227.24 252.96C239.93 245.63 247.82 231.96 247.83 217.31L247.85 187.26C247.86 172.57 239.96 158.88 227.24 151.53L201.35 136.58C194.99 132.91 187.86 131.08 180.74 131.08Z" />
			</g>
			<g id="Сгруппировать 89">
				<path id="Контур 79" fill-rule="evenodd" class="shp31" d="M201.48 136.36L227.37 151.31C240.21 158.72 248.12 172.43 248.11 187.26L248.09 217.31C248.07 232.11 240.18 245.78 227.37 253.19L201.36 268.23C188.52 275.66 172.7 275.66 159.85 268.25L133.96 253.3C121.12 245.88 113.21 232.18 113.22 217.35L113.24 187.29C113.25 172.5 121.15 158.83 133.96 151.42L159.97 136.37C172.81 128.95 188.63 128.94 201.48 136.36ZM199.4 139.95C187.88 133.3 173.57 133.3 162.05 139.96L136.03 155.01C124.54 161.65 117.4 174.02 117.39 187.3L117.37 217.35C117.36 230.66 124.51 243.05 136.03 249.71L161.93 264.66C173.45 271.31 187.76 271.3 199.28 264.64L225.3 249.6C236.79 242.95 243.93 230.58 243.94 217.31L243.96 187.25C243.97 173.95 236.82 161.55 225.3 154.9L199.4 139.95Z" />
				<path id="Контур 80" fill-rule="evenodd" class="shp32" d="M180.59 274.05C173.38 274.05 166.16 272.19 159.72 268.47L133.83 253.52C120.95 246.08 112.95 232.22 112.96 217.35L112.98 187.29C113 172.46 120.98 158.62 133.83 151.19L159.84 136.15C172.72 128.7 188.72 128.7 201.61 136.13L227.5 151.08C240.38 158.52 248.38 172.38 248.37 187.26L248.34 217.31C248.33 232.15 240.35 245.98 227.5 253.41L201.48 268.46C195.04 272.18 187.82 274.05 180.59 274.05ZM180.74 131.08C173.6 131.08 166.47 132.92 160.1 136.6L134.09 151.64C121.4 158.98 113.51 172.64 113.5 187.29L113.48 217.35C113.47 232.04 121.37 245.73 134.09 253.07L159.98 268.02C172.71 275.37 188.51 275.36 201.23 268.01L227.24 252.96C239.93 245.63 247.82 231.96 247.83 217.31L247.85 187.26C247.86 172.57 239.96 158.88 227.24 151.53L201.35 136.58C194.99 132.91 187.86 131.08 180.74 131.08ZM180.59 269.9C174.09 269.9 167.6 268.23 161.8 264.88L135.9 249.93C124.3 243.23 117.1 230.75 117.11 217.35L117.13 187.3C117.14 173.93 124.33 161.47 135.9 154.78L161.92 139.74C173.52 133.03 187.93 133.03 199.53 139.72L225.42 154.67C237.03 161.37 244.23 173.86 244.22 187.25L244.2 217.31C244.19 230.67 237 243.13 225.43 249.82L199.41 264.87C193.61 268.22 187.1 269.9 180.59 269.9ZM180.74 135.22C174.32 135.22 167.9 136.88 162.18 140.19L136.16 155.23C124.75 161.83 117.66 174.12 117.65 187.3L117.63 217.35C117.62 230.56 124.72 242.87 136.16 249.48L162.06 264.43C173.5 271.04 187.71 271.03 199.15 264.42L225.17 249.37C236.58 242.77 243.67 230.49 243.68 217.31L243.7 187.25C243.71 174.04 236.61 161.73 225.17 155.12L199.27 140.17C193.56 136.87 187.15 135.22 180.74 135.22Z" />
			</g>
			<g id="Сгруппировать 90">
				<path id="Контур 81" fill-rule="evenodd" class="shp33" d="M180.84 260.55C173.62 260.55 166.41 258.69 159.97 254.97L145.34 246.53C132.45 239.08 124.46 225.21 124.48 210.32L124.5 193.16C124.52 178.35 132.5 164.53 145.32 157.1L160.17 148.5C173.05 141.04 189.06 141.03 201.95 148.47L216.58 156.92C229.47 164.36 237.47 178.24 237.45 193.12L237.42 210.28C237.4 225.1 229.43 238.91 216.61 246.34L201.76 254.94C195.31 258.68 188.07 260.55 180.84 260.55ZM181.09 143.42C173.94 143.42 166.8 145.26 160.43 148.95L145.58 157.55C132.92 164.89 125.04 178.53 125.02 193.16L125 210.32C124.97 225.03 132.87 238.73 145.6 246.08L160.23 254.52C172.96 261.87 188.78 261.86 201.5 254.49L216.35 245.89C229.01 238.56 236.88 224.91 236.91 210.28L236.93 193.12C236.95 178.42 229.05 164.72 216.32 157.37L201.69 148.92C195.34 145.25 188.21 143.42 181.09 143.42Z" />
			</g>
			<g id="Сгруппировать 91">
				<path id="Контур 82" fill-rule="evenodd" class="shp34" d="M201.82 148.7L216.45 157.14C229.3 164.56 237.21 178.28 237.19 193.12L237.17 210.28C237.15 225.06 229.26 238.71 216.48 246.11L201.63 254.71C188.79 262.15 172.95 262.16 160.1 254.74L145.47 246.3C132.62 238.88 124.72 225.16 124.74 210.32L124.76 193.16C124.78 178.38 132.66 164.73 145.45 157.33L160.3 148.73C173.14 141.29 188.97 141.28 201.82 148.7ZM199.75 152.29C188.22 145.63 173.9 145.64 162.38 152.32L147.53 160.92C136.06 167.56 128.93 179.92 128.91 193.17L128.88 210.33C128.87 223.64 136.02 236.05 147.55 242.71L162.18 251.15C173.71 257.81 188.03 257.8 199.55 251.13L214.4 242.53C225.87 235.88 233 223.53 233.02 210.28L233.04 193.11C233.06 179.8 225.91 167.39 214.38 160.74L199.75 152.29Z" />
				<path id="Контур 83" fill-rule="evenodd" class="shp35" d="M180.84 260.54C173.62 260.54 166.41 258.68 159.97 254.97L145.34 246.52C132.45 239.08 124.46 225.21 124.48 210.32L124.5 193.16C124.52 178.35 132.5 164.53 145.32 157.1L160.17 148.5C173.05 141.04 189.06 141.03 201.95 148.47L216.58 156.92C229.47 164.36 237.47 178.23 237.45 193.12L237.42 210.28C237.4 225.1 229.43 238.91 216.61 246.34L201.76 254.94C195.31 258.67 188.07 260.54 180.84 260.54ZM181.09 143.42C173.94 143.42 166.8 145.26 160.43 148.95L145.58 157.55C132.92 164.89 125.04 178.53 125.02 193.16L125 210.32C124.98 225.02 132.87 238.72 145.6 246.07L160.23 254.52C172.96 261.87 188.78 261.86 201.5 254.49L216.35 245.89C229.01 238.56 236.89 224.91 236.91 210.28L236.93 193.12C236.95 178.42 229.05 164.72 216.32 157.37L201.69 148.92C195.34 145.25 188.21 143.42 181.09 143.42ZM180.84 256.4C174.34 256.4 167.85 254.72 162.05 251.38L147.42 242.93C135.81 236.23 128.61 223.73 128.63 210.33L128.65 193.17C128.67 179.82 135.85 167.38 147.4 160.69L162.25 152.09C173.85 145.37 188.27 145.36 199.88 152.07L214.51 160.51C226.12 167.21 233.32 179.71 233.3 193.11L233.28 210.28C233.26 223.62 226.07 236.06 214.53 242.75L199.68 251.35C193.87 254.71 187.35 256.4 180.84 256.4ZM181.09 147.56C174.66 147.56 168.24 149.22 162.51 152.54L147.66 161.14C136.27 167.74 129.19 180.01 129.17 193.17L129.14 210.33C129.13 223.55 136.23 235.87 147.68 242.48L162.31 250.93C173.76 257.54 187.98 257.53 199.42 250.9L214.27 242.3C225.66 235.71 232.74 223.43 232.76 210.27L232.78 193.11C232.8 179.89 225.7 167.57 214.25 160.96L199.62 152.51C193.9 149.21 187.49 147.56 181.09 147.56Z" />
			</g>
			<g id="Сгруппировать 92">
				<path id="Контур 84" fill-rule="evenodd" class="shp36" d="M181.4 248.94C175.61 248.94 169.83 247.45 164.68 244.48L152.91 237.69C142.6 231.73 136.2 220.64 136.2 208.73L136.19 195.17C136.19 183.26 142.6 172.16 152.92 166.21L164.66 159.43C174.97 153.47 187.78 153.48 198.1 159.43L209.86 166.22C220.17 172.17 226.57 183.27 226.58 195.17L226.58 208.74C226.58 220.65 220.17 231.75 209.85 237.7L198.11 244.48C192.96 247.45 187.17 248.94 181.4 248.94ZM181.38 155.48C175.69 155.48 170 156.95 164.92 159.88L153.18 166.66C143.02 172.52 136.71 183.44 136.71 195.17L136.71 208.73C136.72 220.45 143.02 231.38 153.17 237.24L164.93 244.03C175.09 249.89 187.7 249.89 197.85 244.03L209.6 237.25C219.75 231.39 226.06 220.46 226.06 208.74L226.06 195.17C226.06 183.45 219.75 172.53 209.6 166.67L197.84 159.88C192.76 156.95 187.07 155.48 181.38 155.48Z" />
			</g>
			<g id="Сгруппировать 93">
				<path id="Контур 85" fill-rule="evenodd" class="shp37" d="M197.97 159.65L209.73 166.44C219.99 172.37 226.32 183.32 226.32 195.17L226.32 208.74C226.32 220.59 219.99 231.55 209.73 237.48L197.98 244.26C187.72 250.18 175.07 250.18 164.8 244.25L153.04 237.46C142.78 231.54 136.46 220.58 136.45 208.73L136.45 195.17C136.45 183.31 142.78 172.36 153.05 166.43L164.79 159.65C175.06 153.73 187.7 153.73 197.97 159.65ZM195.89 163.25C186.94 158.08 175.82 158.08 166.86 163.24L155.12 170.02C146.16 175.19 140.6 184.83 140.6 195.17L140.6 208.73C140.6 219.07 146.17 228.7 155.12 233.87L166.88 240.66C175.83 245.83 186.95 245.83 195.91 240.66L207.65 233.88C216.61 228.71 222.17 219.08 222.17 208.74L222.17 195.17C222.17 184.84 216.61 175.2 207.65 170.03L195.89 163.25Z" />
				<path id="Контур 86" fill-rule="evenodd" class="shp38" d="M181.39 248.94C175.61 248.94 169.83 247.45 164.67 244.48L152.91 237.69C142.6 231.73 136.2 220.64 136.19 208.73L136.19 195.17C136.19 183.26 142.6 172.16 152.92 166.21L164.66 159.43C174.97 153.47 187.78 153.48 198.1 159.43L209.86 166.22C220.17 172.17 226.58 183.27 226.58 195.17L226.58 208.74C226.58 220.65 220.17 231.74 209.86 237.7L198.11 244.48C192.95 247.45 187.17 248.94 181.39 248.94ZM181.38 155.48C175.69 155.48 170 156.95 164.92 159.88L153.18 166.66C143.02 172.52 136.71 183.44 136.71 195.17L136.71 208.73C136.71 220.45 143.02 231.38 153.17 237.24L164.93 244.03C175.09 249.89 187.7 249.89 197.85 244.03L209.6 237.25C219.75 231.39 226.06 220.46 226.06 208.74L226.06 195.17C226.06 183.45 219.75 172.53 209.6 166.67L197.84 159.88C192.76 156.95 187.07 155.48 181.38 155.48ZM181.39 244.8C176.33 244.8 171.27 243.49 166.75 240.89L154.99 234.1C145.96 228.88 140.34 219.16 140.34 208.73L140.34 195.17C140.34 184.74 145.95 175.01 154.99 169.8L166.73 163.02C175.77 157.8 186.99 157.81 196.02 163.02L207.78 169.81C216.82 175.03 222.43 184.74 222.43 195.17L222.43 208.74C222.43 219.17 216.82 228.89 207.78 234.11L196.04 240.89C191.52 243.49 186.46 244.8 181.39 244.8ZM181.38 159.63C176.4 159.63 171.43 160.91 166.99 163.47L155.25 170.25C146.37 175.37 140.86 184.92 140.86 195.17L140.86 208.73C140.86 218.98 146.37 228.52 155.25 233.65L167.01 240.44C175.88 245.56 186.9 245.56 195.78 240.44L207.52 233.66C216.4 228.54 221.91 218.98 221.91 208.74L221.91 195.17C221.91 184.93 216.4 175.38 207.52 170.26L195.76 163.47C191.33 160.91 186.35 159.63 181.38 159.63Z" />
			</g>
		</g>
	</g>
</svg>