<svg xmlns="http://www.w3.org/2000/svg" viewBox="0 0 56 57" width="56" height="57">
	<defs>
		<clipPath clipPathUnits="userSpaceOnUse" id="cp1">
			<path d="M-548 -1255L1052 -1255L1052 5017L-548 5017Z" />
		</clipPath>
	</defs>
	<style>
		tspan { white-space:pre }
		.shp0 { fill: #923bfe } 
		.shp1 { fill: #f6f3ff } 
		.shp2 { fill: #4c18aa } 
	</style>
	<g id="Главная страница" clip-path="url(#cp1)">
		<g id="Tooth, stomatology, implant">
			<path id="Контур 164" class="shp0" d="M23.33 51.08L32.67 47.97L32.67 52.89L23.33 56L23.33 51.08Z" />
			<path id="Контур 165" class="shp0" d="M18.67 42.8L37.33 36.58L37.33 41.49L18.67 47.72L18.67 42.8Z" />
			<path id="Контур 166" class="shp1" d="M18.67 25.67L18.62 19.13L17.21 17.76C17.08 17.63 14 14.58 14 9.71C14 5.54 16.54 4.67 18.67 4.67C19.94 4.67 20.64 4.98 21.81 5.5C23.24 6.13 25.2 7 28 7C30.8 7 32.76 6.13 34.19 5.5C35.36 4.98 36.06 4.67 37.33 4.67C39.46 4.67 42 5.54 42 9.71C42 14.58 38.92 17.63 38.83 17.72L37.33 19.11L37.33 25.67L18.67 25.67Z" />
			<path id="Контур 167" class="shp2" d="M37.33 25.67L37.33 19.11L38.83 17.72C38.92 17.63 42 14.58 42 9.71C42 5.54 39.46 4.67 37.33 4.67C36.06 4.67 35.36 4.98 34.19 5.5C32.76 6.13 30.8 7 28 7C25.2 7 23.24 6.13 21.81 5.5C20.64 4.98 19.94 4.67 18.67 4.67C16.54 4.67 14 5.54 14 9.71C14 14.58 17.08 17.63 17.21 17.76L18.62 19.13L18.67 25.67L14 25.67L14 21.14C14 21.14 9.33 16.82 9.33 9.71C9.33 2.61 14.3 0 18.67 0C23.03 0 24.23 2.33 28 2.33C31.77 2.33 32.96 0 37.33 0C41.7 0 46.67 2.61 46.67 9.71C46.67 16.82 42 21.14 42 21.14L42 25.67L37.33 25.67Z" />
			<path id="Контур 168" class="shp0" d="M0 25.67L0 30.33L26.54 30.33L14 34.51L14 39.43L41.3 30.33L56 30.33L56 25.67L0 25.67Z" />
		</g>
	</g>
</svg>