<svg xmlns="http://www.w3.org/2000/svg" viewBox="0 0 18 10" width="18" height="10">
	<defs>
		<clipPath clipPathUnits="userSpaceOnUse" id="cp1">
			<path d="M-27 -6551L333 -6551L333 185L-27 185Z" />
		</clipPath>
	</defs>
	<style>
		tspan { white-space:pre }
		.shp0 { fill: #ffffff } 
	</style>
	<g id="Мобилка-Главная страница" clip-path="url(#cp1)">
		<g id="Сгруппировать 201">
			<g id="Сгруппировать 199">
				<g id="Сгруппировать 185">
					<path id="Icon awesome-vk" class="shp0" d="M17.59 0.68C17.71 0.29 17.59 0 16.99 0L15.03 0C14.53 0 14.29 0.25 14.17 0.52C14.17 0.52 13.17 2.81 11.75 4.29C11.29 4.72 11.08 4.85 10.83 4.85C10.71 4.85 10.52 4.72 10.52 4.32L10.52 0.68C10.52 0.21 10.38 0 9.96 0L6.87 0C6.56 0 6.37 0.22 6.37 0.42C6.37 0.87 7.08 0.97 7.15 2.22L7.15 4.93C7.15 5.52 7.04 5.63 6.79 5.63C6.12 5.63 4.49 3.34 3.53 0.72C3.34 0.21 3.15 0 2.64 0L0.67 0C0.11 0 0 0.25 0 0.52C0 1.01 0.67 3.43 3.11 6.63C4.74 8.82 7.03 10 9.12 10C10.37 10 10.52 9.74 10.52 9.28C10.52 7.2 10.41 7 11.04 7C11.33 7 11.83 7.14 13 8.19C14.34 9.44 14.56 10 15.3 10L17.27 10C17.83 10 18.12 9.74 17.95 9.22C17.58 8.13 15.05 5.88 14.94 5.73C14.65 5.38 14.73 5.23 14.94 4.92C14.94 4.91 17.34 1.75 17.59 0.68L17.59 0.68Z" />
				</g>
			</g>
		</g>
	</g>
</svg>