<svg xmlns="http://www.w3.org/2000/svg" viewBox="0 0 19 12" width="19" height="12">
	<defs>
		<clipPath clipPathUnits="userSpaceOnUse" id="cp1">
			<path d="M-155 -6550L205 -6550L205 186L-155 186Z" />
		</clipPath>
	</defs>
	<style>
		tspan { white-space:pre }
		.shp0 { fill: #ffffff } 
	</style>
	<g id="Мобилка-Главная страница" clip-path="url(#cp1)">
		<g id="Сгруппировать 201">
			<g id="Сгруппировать 199">
				<g id="Сгруппировать 187">
					<path id="Icon awesome-youtube" fill-rule="evenodd" class="shp0" d="M17.62 1.88C18 3.22 18 6.01 18 6.01C18 6.01 18 8.81 17.62 10.15C17.42 10.89 16.81 11.44 16.03 11.64C14.63 12 9 12 9 12C9 12 3.37 12 1.97 11.64C1.19 11.44 0.58 10.89 0.38 10.15C0 8.81 0 6.01 0 6.01C0 6.01 0 3.22 0.38 1.88C0.58 1.14 1.19 0.56 1.97 0.36C3.37 0 9 0 9 0C9 0 14.63 0 16.03 0.36C16.81 0.56 17.42 1.14 17.62 1.88ZM7.16 8.55L11.86 6.01L7.16 3.47L7.16 8.55Z" />
				</g>
			</g>
		</g>
	</g>
</svg>